<?xml version="1.0" encoding="utf-8"?>
<!-- Generator: Adobe Illustrator 27.0.0, SVG Export Plug-In . SVG Version: 6.00 Build 0)  -->
<svg version="1.1" id="Layer_1" xmlns="http://www.w3.org/2000/svg" xmlns:xlink="http://www.w3.org/1999/xlink" x="0px" y="0px"
	 viewBox="0 0 48 48" style="enable-background:new 0 0 48 48;" xml:space="preserve">
<style type="text/css">
	.st0{fill:url(#SVGID_1_);stroke:#8F65D0;stroke-linecap:round;stroke-linejoin:round;stroke-miterlimit:10;}
	.st1{opacity:0;fill:#FFFFFF;}
</style>
<linearGradient id="SVGID_1_" gradientUnits="userSpaceOnUse" x1="36.2626" y1="2.7972" x2="11.854" y2="45.074" gradientTransform="matrix(1 0 0 -1 0 48)">
	<stop  offset="0" style="stop-color:#9FE3F0"/>
	<stop  offset="1" style="stop-color:#D6ACF9"/>
</linearGradient>
<path class="st0" d="M21.1,32.8l14.2-14.3l-3-3.1L21.1,26.7l-5.6-5.6l-3,3L21.1,32.8z M9.5,43.2c-1.3,0-2.3-0.5-3.2-1.4
	S5,39.8,5,38.6v-29c0-1.2,0.4-2.3,1.3-3.2C7.2,5.4,8.2,5,9.5,5h9.1c0.4-1.2,1-2.1,2-2.9C21.5,1.4,22.7,1,24,1s2.5,0.4,3.4,1.1
	c0.9,0.8,1.6,1.7,2,2.9h9.1c1.3,0,2.4,0.4,3.3,1.3c0.9,0.9,1.3,2,1.3,3.2v29.1c0,1.2-0.4,2.3-1.3,3.2c-0.9,0.9-2,1.4-3.3,1.4H9.5z
	 M9.5,38.6h29v-29h-29V38.6z M24,8.6c0.6,0,1.1-0.2,1.5-0.6c0.4-0.4,0.6-0.9,0.6-1.4s-0.2-1.1-0.6-1.5S24.6,4.5,24,4.5
	s-1.1,0.2-1.5,0.6S22,6,22,6.6s0.2,1.1,0.6,1.5C22.9,8.4,23.4,8.6,24,8.6z M9.5,38.6v-29V38.6z"/>
<rect class="st1" width="48" height="48"/>
</svg>
