<?xml version="1.0" encoding="utf-8"?>
<!-- Generator: Adobe Illustrator 26.4.1, SVG Export Plug-In . SVG Version: 6.00 Build 0)  -->
<svg version="1.1" id="Layer_1" xmlns="http://www.w3.org/2000/svg" xmlns:xlink="http://www.w3.org/1999/xlink" x="0px" y="0px"
	 viewBox="0 0 268 136" style="enable-background:new 0 0 268 136;" xml:space="preserve">
<style type="text/css">
	.st0{fill:#1E1F22;}
	.st1{fill:#FFFFFF;fill-opacity:0;}
	.st2{enable-background:new    ;}
	.st3{fill:#6F737A;}
	.st4{clip-path:url(#SVGID_00000020376431812094838590000008584013157900237717_);}
	.st5{clip-path:url(#SVGID_00000065069202460863804780000008739972486538694816_);}
	.st6{opacity:0;clip-path:url(#SVGID_00000124884527143382396310000008685631230920789421_);}
	.st7{clip-path:url(#SVGID_00000047742956141853609140000001931893269161658512_);fill:#6F737A;}
	.st8{clip-path:url(#SVGID_00000149359194024873725230000000312355451437053880_);fill:#1E1F22;}
	.st9{clip-path:url(#SVGID_00000161597876824287531360000012629985794152568466_);fill:#1E1F22;}
	.st10{clip-path:url(#SVGID_00000176757967265729438570000001262762203355332750_);fill:#6F737A;}
	
		.st11{clip-path:url(#SVGID_00000092451256521151508020000010280546983262224516_);fill:none;stroke:#6F737A;stroke-width:1.8609;stroke-linecap:round;stroke-linejoin:round;stroke-miterlimit:10;}
	.st12{clip-path:url(#SVGID_00000181775992480654825590000014002446333999017652_);fill:#6F737A;}
	
		.st13{clip-path:url(#SVGID_00000054983907799103505980000001893258903869595274_);fill:none;stroke:#6F737A;stroke-width:1.8609;stroke-linecap:round;stroke-linejoin:round;stroke-miterlimit:10;}
	.st14{clip-path:url(#SVGID_00000034067524686451664800000001478289810372460171_);fill:#6F737A;}
	
		.st15{clip-path:url(#SVGID_00000111879194923371396990000004388838083335082627_);fill:none;stroke:#6F737A;stroke-width:1.8609;stroke-linecap:round;stroke-linejoin:round;stroke-miterlimit:10;}
</style>
<rect class="st0" width="268" height="136"/>
<rect class="st1" width="268" height="136"/>
<g class="st2">
	<path class="st3" d="M139.1,90c-1.4,0-2.5-0.4-3.3-1.2c-0.8-0.8-1.2-1.9-1.2-3.2c0-1.4,0.4-2.5,1.2-3.3s1.9-1.2,3.3-1.2
		c1.4,0,2.5,0.4,3.3,1.2c0.8,0.8,1.2,1.9,1.2,3.3c0,1.3-0.4,2.4-1.2,3.2S140.5,90,139.1,90z"/>
	<path class="st3" d="M169.8,90c-3,0-5.3-1-7.2-3c-1.8-2-2.7-4.7-2.7-8v-8.7c0-3.4,0.9-6.1,2.7-8.1s4.2-3,7.2-3c2.4,0,4.4,0.7,5.9,2
		s2.2,3.1,2.2,5.3l-1-1.1h1.1l-0.1-6.8V50h4.9v39.4h-4.9v-5.7h-1l1-1.1c0,2.3-0.7,4.1-2.2,5.4C174.2,89.4,172.3,90,169.8,90z
		 M171.4,85.8c2,0,3.6-0.6,4.8-1.9s1.7-3,1.7-5.2v-8.1c0-2.2-0.6-4-1.7-5.2c-1.2-1.3-2.7-1.9-4.8-1.9s-3.7,0.6-4.9,1.8
		c-1.2,1.2-1.8,3-1.8,5.3v8.1c0,2.3,0.6,4.1,1.8,5.3C167.8,85.2,169.4,85.8,171.4,85.8z"/>
	<path class="st3" d="M204,90c-2.3,0-4.4-0.5-6.1-1.4c-1.7-0.9-3.1-2.3-4.1-4s-1.4-3.7-1.4-6v-8.1c0-2.3,0.5-4.3,1.4-6
		c1-1.7,2.3-3,4.1-3.9c1.7-0.9,3.8-1.4,6.1-1.4s4.4,0.5,6.1,1.4c1.7,0.9,3.1,2.3,4.1,3.9c1,1.7,1.4,3.7,1.4,6v5.2h-18.5v2.9
		c0,2.3,0.6,4.1,1.8,5.4s2.9,1.9,5.1,1.9c1.9,0,3.4-0.3,4.5-1c1.2-0.7,1.9-1.7,2.1-3h4.9c-0.3,2.5-1.5,4.5-3.6,5.9
		C209.7,89.3,207.1,90,204,90z M210.8,72.6v-2c0-2.3-0.6-4.1-1.8-5.4c-1.2-1.3-2.9-1.9-5.1-1.9c-2.2,0-3.9,0.6-5.1,1.9
		c-1.2,1.3-1.8,3.1-1.8,5.4v1.6h14.1L210.8,72.6z"/>
	<path class="st3" d="M233.1,89.5l-9.9-29.7h5l6.6,20c0.4,1.2,0.8,2.3,1.1,3.4s0.6,2,0.7,2.6c0.2-0.6,0.4-1.5,0.8-2.6s0.7-2.2,1-3.4
		l6.4-20h4.9l-9.9,29.7H233.1z"/>
</g>
<g>
	<g>
		<g>
			<g>
				<defs>
					<rect id="SVGID_1_" x="13" y="4" width="128" height="128"/>
				</defs>
				<clipPath id="SVGID_00000121266427382534711340000011762722216612866459_">
					<use xlink:href="#SVGID_1_"  style="overflow:visible;"/>
				</clipPath>
				<g style="clip-path:url(#SVGID_00000121266427382534711340000011762722216612866459_);">
					<g>
						<g>
							<defs>
								<rect id="SVGID_00000109026830681361142760000008900217224914238365_" x="13" y="4" width="128" height="128"/>
							</defs>
							<clipPath id="SVGID_00000101805658211422145800000001266665345907289021_">
								<use xlink:href="#SVGID_00000109026830681361142760000008900217224914238365_"  style="overflow:visible;"/>
							</clipPath>
							<g style="clip-path:url(#SVGID_00000101805658211422145800000001266665345907289021_);">
								<g>
									<g>
										<defs>
											<rect id="SVGID_00000063591358462687904990000013828196494948750746_" x="13" y="4" width="128" height="128"/>
										</defs>
										<clipPath id="SVGID_00000154384967202175732600000016477502086935684756_">
											<use xlink:href="#SVGID_00000063591358462687904990000013828196494948750746_"  style="overflow:visible;"/>
										</clipPath>
										<g style="opacity:0;clip-path:url(#SVGID_00000154384967202175732600000016477502086935684756_);">
											<g>
												<g>
													<g>
														<defs>
															<rect id="SVGID_00000070839072446772806950000007873738097139693459_" x="13" y="4" width="128" height="128"/>
														</defs>
														<clipPath id="SVGID_00000163036536438738316260000002050117219755781286_">
															<use xlink:href="#SVGID_00000070839072446772806950000007873738097139693459_"  style="overflow:visible;"/>
														</clipPath>
														
															<rect x="13" y="4" style="clip-path:url(#SVGID_00000163036536438738316260000002050117219755781286_);fill:#6F737A;" width="127.9" height="127.9"/>
													</g>
												</g>
												<g>
													<g>
														<defs>
															<rect id="SVGID_00000021110385018110667670000015266604443739969430_" x="13" y="4" width="128" height="128"/>
														</defs>
														<clipPath id="SVGID_00000089565403318035644790000001895540276733365670_">
															<use xlink:href="#SVGID_00000021110385018110667670000015266604443739969430_"  style="overflow:visible;"/>
														</clipPath>
														<path style="clip-path:url(#SVGID_00000089565403318035644790000001895540276733365670_);fill:#1E1F22;" d="
															M140.9,131.9H13V4.1h127.8L140.9,131.9L140.9,131.9z M141,4H13v128h128V4z"/>
													</g>
												</g>
											</g>
										</g>
									</g>
								</g>
								<g>
									<g>
										<defs>
											<rect id="SVGID_00000150071172089350760300000007221576017871646872_" x="13" y="4" width="128" height="128"/>
										</defs>
										<clipPath id="SVGID_00000076600531968948517380000010952246591373783733_">
											<use xlink:href="#SVGID_00000150071172089350760300000007221576017871646872_"  style="overflow:visible;"/>
										</clipPath>
										<path style="clip-path:url(#SVGID_00000076600531968948517380000010952246591373783733_);fill:#1E1F22;" d="M30.9,9.4
											c-1,0-0.6,2.5,2.1,9.3c5.9,15,16.4,28.2,30.2,34.6c-12.3-3.9-17.8-8.9-24.8-13.1c-5-3-12.4-8.8-17-13.4
											c-7.1-7-6.8-1.8-4.4,4.1c3.9,9.4,14,16.1,21.6,20.5c-11.1-3.4-23.5-16.6-23.1-12c0.3,2.8,4.3,8.7,10.7,14
											c4.3,3.6,9.5,6.8,14.9,8.6c-11.1-2.7-18.3-8.8-19.4-8.5c-2,0.5-1.7,2.6,1.9,7.3c5.7,7.5,12.6,11.3,21.7,12.6
											c-4.8-0.1-8.6-0.8-11.3-1.5c-10.3-2.4-2.7,3.2,0.4,5.5c3.1,2.3,7.2,4,11.3,5.1c4.8,1.3,9.4,2.3,13.9,2.6
											c-8.1,0.6-17.6-0.2-18.4,1.2c-1.2,2,4,4.3,10.8,5.5c3.7,0.7,5.8,0.8,10.8,0.4c-5.6,1-8.1,1.9-8.7,2.7
											c-1.6,2.3,11,4.6,20.3,1.4c-4.1,1.7-5.2,2.8-4,3c0.9,0.2,2.7-0.8,6.9-1.6c-11.2,4.4-2.9,5.5,3.3,3.9
											c-6.3,3.3,1.9,3.8,5.3,3.8c-4.1,0.9-6.7,1.5-8,2.4c-3.4,2.4,3.6,4.2,11.5,2.2c-9.1,3.6-8.5,4.7-2.1,6.3
											c3.5,0.9,6.8,0.3,9.9-0.1c-5.9,1.6,2.4,2,4.5,1.2c-3.3,1.9-8.2,1-8.6,2c-0.6,1.4,3.4,3,8.7,3c-4.6,1.7,3.6,2.2,5.3,2
											c-5.8,2.8,2.4,3,9,1.5c4-0.9,7.9-2.2,9.2-3.5c10-0.4,13.5-15.4,13.6-15.8c0.1-0.5-5.6-2.5-10.9-5c-4.3-2-8.8-5.2-12-8.1
											l-13.6-16.9c-3-4.6-5.8-9.5-8.6-14.2c-2.7-4.6-4.7-4.1-5-3c-3.9-3.6-10.7-5.8-19-10.7c-6.1-3.7-12.6-9.2-20-17.4
											C44.1,24.9,33.3,9.4,30.9,9.4"/>
									</g>
								</g>
								<g>
									<g>
										<defs>
											<rect id="SVGID_00000159433448491679642170000011639020960587395504_" x="13" y="4" width="128" height="128"/>
										</defs>
										<clipPath id="SVGID_00000116938305467121249100000011356238054226362284_">
											<use xlink:href="#SVGID_00000159433448491679642170000011639020960587395504_"  style="overflow:visible;"/>
										</clipPath>
										<path style="clip-path:url(#SVGID_00000116938305467121249100000011356238054226362284_);fill:#6F737A;" d="M135.3,104.1
											c-2.1-0.8-4.6-1.7-7.2-2.9c-5.2-2.5-10.6-6.6-13.9-9.9c-8.3-8.5-14.1-18.9-20.2-29.2c-1.6-2.8-3-3.8-4.1-3.9
											c-0.6-0.1-1,0.2-1.3,0.5c-0.1,0.1-0.1,0.2-0.2,0.4c-1.1-1-2.9-2.1-4.9-3.1c-2.3-1.2-4.7-2.1-6.4-1.9
											c-0.1,0-0.2,0.1-0.2,0.1c-0.1,0.1-0.1,0.2-0.1,0.2c0,0.1,0,0.2,0.1,0.2c0.1,0.1,0.1,0.2,0.2,0.3c0.2,0.2,0.5,0.5,0.9,0.9
											s1,0.8,1.7,1.3C76.6,56.4,74,56,71.9,56c-2.6,0-4.5,0.4-5.4,1.1c-0.1,0.1-0.2,0.2-0.2,0.4s0,0.3,0.1,0.4
											c0.1,0.2,0.3,0.3,0.6,0.5c0.5,0.3,1.3,0.7,2.4,1.1c1.4,0.5,3.1,1.1,5.2,1.7c-0.3,0-0.6,0-0.9,0c-1.2,0.1-1.9,0.3-2.4,0.7
											c-0.2,0.2-0.3,0.5-0.3,0.8s0.1,0.5,0.3,0.8c0.4,0.5,1,0.9,1.8,1.2c2.2,1,5.6,1.9,8,2.4c-1.3,0.2-2.2,0.4-2.8,0.7
											c-0.5,0.2-0.8,0.4-0.9,0.8c0,0.2,0,0.4,0.1,0.5c0.1,0.2,0.2,0.3,0.4,0.4c0.6,0.5,1.6,0.9,2.9,1.2c1.6,0.5,3.6,0.9,5.4,1.1
											c-0.9,0.2-1.6,0.4-2.1,0.6s-0.8,0.4-1,0.7c-0.2,0.3-0.1,0.7,0.1,1.1c0.4,0.6,1.1,0.9,1.8,1.1c0.7,0.1,1.5,0.1,2.4,0
											c1.6-0.3,3.3-0.9,4.2-1.6c0.6-0.4,1-0.9,1.4-1.6c-0.6,0.3-1.2,0.6-1.8,1c-1.7,1.2-2.5,2.4-2.6,3.4c0,0.4,0,0.8,0.3,1.1
											c0.2,0.3,0.6,0.5,1,0.5c0.5,0.1,1.1-0.1,1.8-0.4c-0.2,0.4-0.3,0.8-0.3,1.1c0,0.3,0,0.6,0.2,0.8c0.1,0.2,0.4,0.4,0.7,0.4
											c0.5,0.1,1.1,0,1.8-0.4c0.4-0.2,0.9-0.5,1.4-0.9c-0.1,0.5-0.1,1.1,0,1.7c0.1,1,0.2,2,0.5,2.8c0.1,0.4,0.3,0.7,0.4,0.9
											c0.1,0.1,0.2,0.2,0.4,0.3c0.2,0,0.4,0,0.5-0.1c0.3-0.2,0.4-0.4,0.5-0.8c0.4,2.4,1.4,4.9,2.4,6.7c0.3,0.6,0.6,1,0.9,1.4
											s0.5,0.6,0.9,0.7c0.2,0.1,0.4,0,0.6-0.1l0.1-0.1c0.2,0.6,0.5,1.2,0.9,1.6c0.4,0.5,0.8,0.9,1.4,1c0.2,0.1,0.5,0.1,0.7,0.1
											c-0.3,0.3-0.5,0.5-0.7,0.7s-0.3,0.4-0.4,0.6s-0.2,0.5-0.1,0.7s0.3,0.4,0.6,0.4c0.2,0.1,0.5,0.1,0.9,0.1
											c0.5,0,1.1-0.1,1.8-0.2c-0.1,0.1-0.2,0.2-0.3,0.3c-0.4,0.3-0.6,0.5-0.7,0.8c0,0.2,0,0.3,0,0.5c0.1,0.1,0.2,0.2,0.3,0.3
											c0.2,0.1,0.5,0.2,0.8,0.3c0.5,0.1,1.2,0.2,1.8,0.3c-0.1,0.2-0.2,0.5-0.2,0.7c0,0.4,0.2,0.8,0.4,1.2
											c0.6,0.7,1.5,1.3,2.7,1.8c1.1,0.5,2.4,0.9,3.5,1.1s2.1,0.3,2.8,0.1c0.4-0.1,0.8-0.4,1-0.8c-0.4,0-0.8,0.1-1.2,0.1
											c-1.3,0.2-2.1,0.5-2.6,0.9c-0.2,0.2-0.4,0.5-0.5,0.7c0,0.3,0,0.6,0.2,0.8c0.3,0.5,0.9,0.8,1.6,1.1
											c0.6,0.2,1.3,0.4,2.1,0.4c-0.1,0.3-0.1,0.5-0.1,0.8c0,0.4,0.2,0.7,0.5,0.8c0.5,0.4,1.2,0.4,1.9,0.3
											c0.8-0.1,1.6-0.2,2.3-0.4c0.1,0,0.2,0,0.3-0.1c-0.4,0.3-0.6,0.6-0.8,0.9c-0.1,0.2-0.2,0.5-0.1,0.8s0.3,0.4,0.6,0.5
											c0.5,0.2,1.1,0.2,1.9,0c0.4-0.1,0.8-0.2,1.3-0.3c-0.1,0.1-0.1,0.2-0.1,0.3c-0.2,0.5-0.1,0.9,0.2,1.3
											c0.6,0.6,1.7,0.9,2.8,0.8l-0.4-0.3l0,0c0.1,0.5,0.2,0.9,0.5,1.4c0.2,0.3,0.5,0.6,0.9,0.7c0.7,0.2,1.4,0.2,1.8,0.1
											c0.4-0.1,0.7-0.1,0.7-0.1s-0.3,0-0.7-0.1c-0.4,0-1.1-0.1-1.6-0.4c-0.2-0.1-0.4-0.3-0.5-0.5c-0.2-0.3-0.2-0.7-0.3-1.1
											c0,0,0,0,0-0.3c-0.1,0-0.2,0-0.3,0c-1.1,0.1-2-0.2-2.3-0.6c-0.2-0.2-0.2-0.3-0.1-0.6c0.1-0.3,0.4-0.6,0.9-1l2.1-1.6
											l-2.4,1c-0.9,0.4-1.8,0.6-2.5,0.7s-1.3,0.1-1.6,0c-0.1,0-0.1-0.1-0.1-0.1s0-0.1,0.1-0.2c0.2-0.3,0.7-0.8,1.8-1.5
											c0.2-0.2,0.5-0.3,0.7-0.4c-0.3-0.1-0.6-0.2-0.9-0.2c-0.5,0-1.1,0.1-1.9,0.3c-0.7,0.2-1.5,0.3-2.2,0.4s-1.2,0-1.5-0.2
											c-0.1-0.1-0.2-0.2-0.2-0.4c0-0.2,0-0.5,0.2-0.9c0.1-0.2,0.1-0.3,0.2-0.5c-0.2,0-0.4,0-0.6,0c-0.9,0-1.7-0.2-2.4-0.4
											c-0.6-0.2-1.1-0.6-1.2-0.8c-0.1-0.1-0.1-0.2-0.1-0.3c0-0.1,0.1-0.2,0.2-0.3c0.3-0.3,1-0.6,2.2-0.7l-0.2-0.7
											c-0.4,0.1-1.3,0.1-2.4-0.1s-2.3-0.6-3.4-1c-1.1-0.5-2-1-2.4-1.6c-0.2-0.3-0.3-0.5-0.3-0.7s0.1-0.5,0.4-0.8
											c0.2-0.2,0.4-0.3,0.7-0.5c-0.3,0-0.6-0.1-0.9-0.1c-0.8-0.1-1.8-0.2-2.3-0.3c-0.3-0.1-0.5-0.2-0.6-0.2c0,0-0.1,0,0,0
											c0,0,0,0.1,0,0c0,0,0.1-0.2,0.5-0.5c0.3-0.3,0.8-0.7,1.5-1.1c0.5-0.4,1.1-0.7,1.7-1.1c-0.6,0.2-1.3,0.3-1.9,0.4
											c-1.5,0.3-2.6,0.5-3.3,0.5c-0.3,0-0.6,0-0.7,0s-0.1-0.1-0.1,0c0,0,0,0,0-0.1s0.2-0.3,0.3-0.5c0.3-0.4,0.9-0.9,1.5-1.5
											l1.3-1.2l-1.6,0.6c-0.6,0.2-1.1,0.2-1.5,0.1s-0.7-0.4-1-0.8c-0.6-0.8-1-2.1-1.4-3.2l-1.6-5.8l0.9,5.9
											c0.1,0.7,0.1,1.2,0.1,1.4c0,0.1-0.1,0.1,0,0.1h0.1c0,0-0.3-0.2-0.5-0.5s-0.5-0.8-0.8-1.3c-1.2-2.2-2.5-5.8-2.5-8.5v-4.7
											l-0.7,4.6c-0.1,0.9-0.3,1.5-0.4,1.9s-0.3,0.6-0.3,0.6s0,0,0.1,0l0,0c-0.1-0.1-0.2-0.4-0.3-0.7c-0.2-0.7-0.4-1.6-0.4-2.6
											c-0.1-1,0-1.9,0.2-2.4l0.5-1.4l-1,1c-0.7,0.7-1.4,1.2-2,1.5s-1.1,0.4-1.4,0.3c-0.1,0-0.2-0.1-0.2-0.1
											c0-0.1-0.1-0.2-0.1-0.4c0-0.4,0.3-1.1,1-2.1l1.3-1.9l-1.8,1.4c-1.1,0.9-2,1.1-2.5,1.1c-0.3,0-0.4-0.1-0.5-0.2
											s-0.2-0.3-0.1-0.6c0.1-0.7,0.7-1.8,2.3-2.9l-0.4-0.6c-0.8,0.5-2.4,1.2-3.9,1.4c-0.8,0.1-1.5,0.1-2.1,0s-1.1-0.4-1.4-0.8
											c-0.1-0.2-0.1-0.2-0.1-0.3c0-0.1,0.3-0.3,0.7-0.4c0.8-0.3,2.4-0.7,4.6-1.1l4.5-1l-4.6,0.3c-1.9,0.1-5.4-0.4-7.9-1.1
											c-1.2-0.4-2.3-0.8-2.7-1.1c-0.1-0.1-0.2-0.2-0.2-0.2l0,0c0,0,0.1-0.2,0.5-0.3c0.7-0.3,2.1-0.6,4.5-0.9
											c1.2-0.2,2.3-0.3,3.5-0.4c-1.2,0-2.3-0.1-3.5-0.3c-1.9-0.3-6.9-1.5-9.7-2.8c-0.7-0.3-1.3-0.7-1.6-1
											C72.1,63,72,62.9,72,62.8c0-0.1,0-0.1,0.1-0.2c0.2-0.2,0.8-0.4,1.9-0.5s2.7,0,4.8,0.3l6.9,1l-6.8-1.7
											c-3.8-0.9-7-1.9-9-2.7c-1-0.4-1.8-0.8-2.3-1c-0.2-0.1-0.3-0.3-0.4-0.3c0,0,0,0,0,0.1v0.1c0.7-0.6,2.4-1,5-1
											s5.9,0.5,9.9,1.7l3,0.9L82,57.9c-1.5-0.9-2.8-1.7-3.5-2.4c-0.4-0.3-0.7-0.6-0.8-0.8c-0.1-0.1-0.1-0.2-0.1-0.2s0,0,0,0.1
											c0,0,0,0.1-0.1,0.2c-0.1,0.1-0.2,0.1-0.2,0.1c1.3-0.2,3.7,0.6,6,1.8s4.4,2.6,5.3,3.6l1.2,1.2l-0.6-1.6
											c-0.1-0.3-0.1-0.5,0.1-0.7c0.1-0.2,0.3-0.3,0.7-0.2c0.7,0.1,2,0.9,3.6,3.6c6.1,10.3,12,20.8,20.3,29.3
											c3.3,3.4,8.8,7.5,14.1,10c2.6,1.3,5.2,2.1,7.3,2.9c1.1,0.4,2.8,1.6,3.6,1.8C139.4,106.7,136.7,104.7,135.3,104.1"/>
									</g>
								</g>
								<g>
									<g>
										<defs>
											<rect id="SVGID_00000057840348916982709140000008174171662707632812_" x="13" y="4" width="128" height="128"/>
										</defs>
										<clipPath id="SVGID_00000096028679351407166830000004493563501967539082_">
											<use xlink:href="#SVGID_00000057840348916982709140000008174171662707632812_"  style="overflow:visible;"/>
										</clipPath>
										
											<path style="clip-path:url(#SVGID_00000096028679351407166830000004493563501967539082_);fill:none;stroke:#6F737A;stroke-width:1.8609;stroke-linecap:round;stroke-linejoin:round;stroke-miterlimit:10;" d="
											M135.3,104.1c-2.1-0.8-4.6-1.7-7.2-2.9c-5.2-2.5-10.6-6.6-13.9-9.9c-8.3-8.5-14.1-18.9-20.2-29.2c-1.6-2.8-3-3.8-4.1-3.9
											c-0.6-0.1-1,0.2-1.3,0.5c-0.1,0.1-0.1,0.2-0.2,0.4c-1.1-1-2.9-2.1-4.9-3.1c-2.3-1.2-4.7-2.1-6.4-1.9
											c-0.1,0-0.2,0.1-0.2,0.1c-0.1,0.1-0.1,0.2-0.1,0.2c0,0.1,0,0.2,0.1,0.2c0.1,0.1,0.1,0.2,0.2,0.3c0.2,0.2,0.5,0.5,0.9,0.9
											s1,0.8,1.7,1.3C76.6,56.4,74,56,71.9,56c-2.6,0-4.5,0.4-5.4,1.1c-0.1,0.1-0.2,0.2-0.2,0.4s0,0.3,0.1,0.4
											c0.1,0.2,0.3,0.3,0.6,0.5c0.5,0.3,1.3,0.7,2.4,1.1c1.4,0.5,3.1,1.1,5.2,1.7c-0.3,0-0.6,0-0.9,0c-1.2,0.1-1.9,0.3-2.4,0.7
											c-0.2,0.2-0.3,0.5-0.3,0.8s0.1,0.5,0.3,0.8c0.4,0.5,1,0.9,1.8,1.2c2.2,1,5.6,1.9,8,2.4c-1.3,0.2-2.2,0.4-2.8,0.7
											c-0.5,0.2-0.8,0.4-0.9,0.8c0,0.2,0,0.4,0.1,0.5c0.1,0.2,0.2,0.3,0.4,0.4c0.6,0.5,1.6,0.9,2.9,1.2c1.6,0.5,3.6,0.9,5.4,1.1
											c-0.9,0.2-1.6,0.4-2.1,0.6s-0.8,0.4-1,0.7c-0.2,0.3-0.1,0.7,0.1,1.1c0.4,0.6,1.1,0.9,1.8,1.1c0.7,0.1,1.5,0.1,2.4,0
											c1.6-0.3,3.3-0.9,4.2-1.6c0.6-0.4,1-0.9,1.4-1.6c-0.6,0.3-1.2,0.6-1.8,1c-1.7,1.2-2.5,2.4-2.6,3.4c0,0.4,0,0.8,0.3,1.1
											c0.2,0.3,0.6,0.5,1,0.5c0.5,0.1,1.1-0.1,1.8-0.4c-0.2,0.4-0.3,0.8-0.3,1.1c0,0.3,0,0.6,0.2,0.8c0.1,0.2,0.4,0.4,0.7,0.4
											c0.5,0.1,1.1,0,1.8-0.4c0.4-0.2,0.9-0.5,1.4-0.9c-0.1,0.5-0.1,1.1,0,1.7c0.1,1,0.2,2,0.5,2.8c0.1,0.4,0.3,0.7,0.4,0.9
											c0.1,0.1,0.2,0.2,0.4,0.3c0.2,0,0.4,0,0.5-0.1c0.3-0.2,0.4-0.4,0.5-0.8c0.4,2.4,1.4,4.9,2.4,6.7c0.3,0.6,0.6,1,0.9,1.4
											s0.5,0.6,0.9,0.7c0.2,0.1,0.4,0,0.6-0.1l0.1-0.1c0.2,0.6,0.5,1.2,0.9,1.6c0.4,0.5,0.8,0.9,1.4,1c0.2,0.1,0.5,0.1,0.7,0.1
											c-0.3,0.3-0.5,0.5-0.7,0.7s-0.3,0.4-0.4,0.6s-0.2,0.5-0.1,0.7s0.3,0.4,0.6,0.4c0.2,0.1,0.5,0.1,0.9,0.1
											c0.5,0,1.1-0.1,1.8-0.2c-0.1,0.1-0.2,0.2-0.3,0.3c-0.4,0.3-0.6,0.5-0.7,0.8c0,0.2,0,0.3,0,0.5c0.1,0.1,0.2,0.2,0.3,0.3
											c0.2,0.1,0.5,0.2,0.8,0.3c0.5,0.1,1.2,0.2,1.8,0.3c-0.1,0.2-0.2,0.5-0.2,0.7c0,0.4,0.2,0.8,0.4,1.2
											c0.6,0.7,1.5,1.3,2.7,1.8c1.1,0.5,2.4,0.9,3.5,1.1s2.1,0.3,2.8,0.1c0.4-0.1,0.8-0.4,1-0.8c-0.4,0-0.8,0.1-1.2,0.1
											c-1.3,0.2-2.1,0.5-2.6,0.9c-0.2,0.2-0.4,0.5-0.5,0.7c0,0.3,0,0.6,0.2,0.8c0.3,0.5,0.9,0.8,1.6,1.1
											c0.6,0.2,1.3,0.4,2.1,0.4c-0.1,0.3-0.1,0.5-0.1,0.8c0,0.4,0.2,0.7,0.5,0.8c0.5,0.4,1.2,0.4,1.9,0.3
											c0.8-0.1,1.6-0.2,2.3-0.4c0.1,0,0.2,0,0.3-0.1c-0.4,0.3-0.6,0.6-0.8,0.9c-0.1,0.2-0.2,0.5-0.1,0.8s0.3,0.4,0.6,0.5
											c0.5,0.2,1.1,0.2,1.9,0c0.4-0.1,0.8-0.2,1.3-0.3c-0.1,0.1-0.1,0.2-0.1,0.3c-0.2,0.5-0.1,0.9,0.2,1.3
											c0.6,0.6,1.7,0.9,2.8,0.8l-0.4-0.3l0,0c0.1,0.5,0.2,0.9,0.5,1.4c0.2,0.3,0.5,0.6,0.9,0.7c0.7,0.2,1.4,0.2,1.8,0.1
											c0.4-0.1,0.7-0.1,0.7-0.1s-0.3,0-0.7-0.1c-0.4,0-1.1-0.1-1.6-0.4c-0.2-0.1-0.4-0.3-0.5-0.5c-0.2-0.3-0.2-0.7-0.3-1.1
											c0,0,0,0,0-0.3c-0.1,0-0.2,0-0.3,0c-1.1,0.1-2-0.2-2.3-0.6c-0.2-0.2-0.2-0.3-0.1-0.6c0.1-0.3,0.4-0.6,0.9-1l2.1-1.6
											l-2.4,1c-0.9,0.4-1.8,0.6-2.5,0.7s-1.3,0.1-1.6,0c-0.1,0-0.1-0.1-0.1-0.1s0-0.1,0.1-0.2c0.2-0.3,0.7-0.8,1.8-1.5
											c0.2-0.2,0.5-0.3,0.7-0.4c-0.3-0.1-0.6-0.2-0.9-0.2c-0.5,0-1.1,0.1-1.9,0.3c-0.7,0.2-1.5,0.3-2.2,0.4s-1.2,0-1.5-0.2
											c-0.1-0.1-0.2-0.2-0.2-0.4c0-0.2,0-0.5,0.2-0.9c0.1-0.2,0.1-0.3,0.2-0.5c-0.2,0-0.4,0-0.6,0c-0.9,0-1.7-0.2-2.4-0.4
											c-0.6-0.2-1.1-0.6-1.2-0.8c-0.1-0.1-0.1-0.2-0.1-0.3c0-0.1,0.1-0.2,0.2-0.3c0.3-0.3,1-0.6,2.2-0.7l-0.2-0.7
											c-0.4,0.1-1.3,0.1-2.4-0.1s-2.3-0.6-3.4-1c-1.1-0.5-2-1-2.4-1.6c-0.2-0.3-0.3-0.5-0.3-0.7s0.1-0.5,0.4-0.8
											c0.2-0.2,0.4-0.3,0.7-0.5c-0.3,0-0.6-0.1-0.9-0.1c-0.8-0.1-1.8-0.2-2.3-0.3c-0.3-0.1-0.5-0.2-0.6-0.2c0,0-0.1,0,0,0
											c0,0,0,0.1,0,0c0,0,0.1-0.2,0.5-0.5c0.3-0.3,0.8-0.7,1.5-1.1c0.5-0.4,1.1-0.7,1.7-1.1c-0.6,0.2-1.3,0.3-1.9,0.4
											c-1.5,0.3-2.6,0.5-3.3,0.5c-0.3,0-0.6,0-0.7,0s-0.1-0.1-0.1,0c0,0,0,0,0-0.1s0.2-0.3,0.3-0.5c0.3-0.4,0.9-0.9,1.5-1.5
											l1.3-1.2l-1.6,0.6c-0.6,0.2-1.1,0.2-1.5,0.1s-0.7-0.4-1-0.8c-0.6-0.8-1-2.1-1.4-3.2l-1.6-5.8l0.9,5.9
											c0.1,0.7,0.1,1.2,0.1,1.4c0,0.1-0.1,0.1,0,0.1h0.1c0,0-0.3-0.2-0.5-0.5s-0.5-0.8-0.8-1.3c-1.2-2.2-2.5-5.8-2.5-8.5v-4.7
											l-0.7,4.6c-0.1,0.9-0.3,1.5-0.4,1.9s-0.3,0.6-0.3,0.6s0,0,0.1,0l0,0c-0.1-0.1-0.2-0.4-0.3-0.7c-0.2-0.7-0.4-1.6-0.4-2.6
											c-0.1-1,0-1.9,0.2-2.4l0.5-1.4l-1,1c-0.7,0.7-1.4,1.2-2,1.5s-1.1,0.4-1.4,0.3c-0.1,0-0.2-0.1-0.2-0.1
											c0-0.1-0.1-0.2-0.1-0.4c0-0.4,0.3-1.1,1-2.1l1.3-1.9l-1.8,1.4c-1.1,0.9-2,1.1-2.5,1.1c-0.3,0-0.4-0.1-0.5-0.2
											s-0.2-0.3-0.1-0.6c0.1-0.7,0.7-1.8,2.3-2.9l-0.4-0.6c-0.8,0.5-2.4,1.2-3.9,1.4c-0.8,0.1-1.5,0.1-2.1,0s-1.1-0.4-1.4-0.8
											c-0.1-0.2-0.1-0.2-0.1-0.3c0-0.1,0.3-0.3,0.7-0.4c0.8-0.3,2.4-0.7,4.6-1.1l4.5-1l-4.6,0.3c-1.9,0.1-5.4-0.4-7.9-1.1
											c-1.2-0.4-2.3-0.8-2.7-1.1c-0.1-0.1-0.2-0.2-0.2-0.2l0,0c0,0,0.1-0.2,0.5-0.3c0.7-0.3,2.1-0.6,4.5-0.9
											c1.2-0.2,2.3-0.3,3.5-0.4c-1.2,0-2.3-0.1-3.5-0.3c-1.9-0.3-6.9-1.5-9.7-2.8c-0.7-0.3-1.3-0.7-1.6-1
											C72.1,63,72,62.9,72,62.8c0-0.1,0-0.1,0.1-0.2c0.2-0.2,0.8-0.4,1.9-0.5s2.7,0,4.8,0.3l6.9,1l-6.8-1.7
											c-3.8-0.9-7-1.9-9-2.7c-1-0.4-1.8-0.8-2.3-1c-0.2-0.1-0.3-0.3-0.4-0.3c0,0,0,0,0,0.1v0.1c0.7-0.6,2.4-1,5-1
											s5.9,0.5,9.9,1.7l3,0.9L82,57.9c-1.5-0.9-2.8-1.7-3.5-2.4c-0.4-0.3-0.7-0.6-0.8-0.8c-0.1-0.1-0.1-0.2-0.1-0.2s0,0,0,0.1
											c0,0,0,0.1-0.1,0.2c-0.1,0.1-0.2,0.1-0.2,0.1c1.3-0.2,3.7,0.6,6,1.8s4.4,2.6,5.3,3.6l1.2,1.2l-0.6-1.6
											c-0.1-0.3-0.1-0.5,0.1-0.7c0.1-0.2,0.3-0.3,0.7-0.2c0.7,0.1,2,0.9,3.6,3.6c6.1,10.3,12,20.8,20.3,29.3
											c3.3,3.4,8.8,7.5,14.1,10c2.6,1.3,5.2,2.1,7.3,2.9c1.1,0.4,2.8,1.6,3.6,1.8C139.4,106.7,136.7,104.7,135.3,104.1z"/>
									</g>
								</g>
								<g>
									<g>
										<defs>
											<rect id="SVGID_00000143615668871465507700000014337473153564745093_" x="13" y="4" width="128" height="128"/>
										</defs>
										<clipPath id="SVGID_00000106833524725375115250000012658070291236862362_">
											<use xlink:href="#SVGID_00000143615668871465507700000014337473153564745093_"  style="overflow:visible;"/>
										</clipPath>
										<path style="clip-path:url(#SVGID_00000106833524725375115250000012658070291236862362_);fill:#6F737A;" d="M87.9,60
											c1,1,1.7,1.9,2.4,2.8c0.6,0.8,0.9,1.4,0.9,1.4s-0.2-0.7-0.6-1.6c-0.5-1-1.2-2.1-2.2-3.1c-2.3-2.4-5.5-4.5-9.3-6.3
											c-2.8-1.4-5.9-2.9-9.2-4.9C63.8,44.7,57.3,39.1,50,31c-4-4.5-10.5-13.4-14.8-18.4c-1.1-1.2-2.1-2.2-2.8-2.8
											c-0.4-0.3-0.7-0.5-1.1-0.6c-0.2-0.1-0.3-0.1-0.5-0.1s-0.3,0.1-0.5,0.3c-0.2,0.3-0.3,0.6-0.2,1.1c0,0.5,0.1,1.1,0.3,1.8
											c0.4,1.5,1.1,3.6,2.3,6.6C38,32.3,47,44.4,58.8,51.4c-8-3.2-14.3-8-20.2-11.6c-5-3-12.4-8.8-17-13.3
											c-1.8-1.8-3.1-2.8-4.1-3.2c-0.5-0.2-0.9-0.3-1.3-0.2c-0.4,0.1-0.7,0.4-0.9,0.7c-0.3,0.7-0.3,1.7,0,3
											c0.3,1.2,0.7,2.7,1.3,4.2c3.3,8.1,11.2,14.2,18.2,18.5c-4.3-2-8.5-5-11.9-7.4c-2.2-1.6-4.1-2.9-5.4-3.6
											c-0.7-0.3-1.2-0.5-1.7-0.4c-0.2,0.1-0.5,0.2-0.6,0.5c-0.1,0.2-0.1,0.5-0.1,0.8c0.1,1.5,1.3,3.7,3.1,6.2
											c1.9,2.5,4.5,5.4,7.7,8c2.6,2.2,5.5,4.2,8.6,5.9c-2.6-1-4.9-2.2-6.8-3.2c-1.7-0.9-3-1.7-4-2.3c-0.5-0.3-0.9-0.5-1.3-0.7
											c-0.3-0.2-0.6-0.3-0.9-0.2c-0.6,0.1-1,0.4-1.3,0.8c-0.3,0.4-0.3,1-0.1,1.6c0.3,1.3,1.3,3,3.1,5.3
											c4.6,6.1,10,9.7,16.7,11.6c-2.3-0.3-4.3-0.7-5.9-1.1c-2.6-0.6-4.1-0.7-4.9-0.5c-0.2,0.1-0.4,0.2-0.5,0.3
											c-0.1,0.2-0.2,0.4-0.2,0.5c0,0.4,0.2,0.7,0.5,1.1c1.1,1.5,3.8,3.4,5.3,4.6c3.2,2.3,7.3,4.1,11.4,5.2
											c3.3,0.9,6.4,1.6,9.5,2.1c-2.6,0.1-5.3,0-7.5,0.1c-1.8,0-3.3,0.1-4.4,0.2c-0.6,0.1-1.1,0.2-1.5,0.3
											c-0.4,0.1-0.7,0.3-0.9,0.6c-0.2,0.3-0.2,0.7-0.2,1c0.1,0.3,0.2,0.6,0.5,0.9c0.5,0.6,1.3,1.1,2.3,1.6
											c2.1,1,5.1,1.9,8.5,2.5c2.4,0.4,4.2,0.7,6.4,0.7c-0.7,0.2-1.4,0.4-1.9,0.5c-1.4,0.5-2.2,0.9-2.6,1.4
											c-0.1,0.2-0.2,0.5-0.2,0.7s0.1,0.5,0.3,0.6c0.3,0.4,0.8,0.7,1.5,0.9c1.3,0.5,3.3,0.9,5.6,1.1c4.6,0.4,10.6-0.1,15.4-2.2
											c1.1-0.5,2.2-1.1,3.2-1.9c-1.2,0.4-2.3,0.8-3.5,1.2c-2.8,1.1-4.6,1.9-5.6,2.6c-0.5,0.3-0.8,0.6-0.9,1
											c-0.1,0.2,0,0.4,0.1,0.6c0.1,0.1,0.3,0.2,0.5,0.2c0.6,0.1,1.3-0.1,2.4-0.4c0.4-0.1,0.7-0.2,1.2-0.3
											c-0.9,0.5-1.5,0.9-1.9,1.3s-0.6,0.8-0.5,1.2c0.1,0.4,0.4,0.7,0.8,0.9c0.8,0.4,2.1,0.5,3.6,0.4c0.9,0,1.9-0.1,2.9-0.3
											c-0.1,0-0.1,0.1-0.2,0.1c-0.4,0.4-0.7,0.7-0.7,1.1s0.2,0.7,0.4,1c0.3,0.2,0.7,0.4,1.1,0.5c1,0.3,2.4,0.5,3.7,0.6
											c-2.6,0.6-4.5,1.1-5.5,1.9c-0.5,0.3-0.8,0.7-0.9,1c-0.2,0.4-0.1,0.8,0.1,1.1c0.4,0.6,1.3,1,2.5,1.3
											c1.7,0.4,4.2,0.4,6.9,0.1c-0.8,0.4-1.5,0.7-2.1,1c-1.1,0.6-1.8,1.2-2,1.8c-0.1,0.3,0.1,0.7,0.3,0.9c0.2,0.3,0.6,0.5,1,0.7
											c0.9,0.4,2.1,0.8,3.7,1.2c2.7,0.7,5.3,0.5,7.7,0.2c0,0.1-0.1,0.2-0.1,0.3c0,0.2,0.1,0.4,0.2,0.5s0.2,0.2,0.4,0.2
											c0.3,0.1,0.6,0.2,1,0.2c0.6,0.1,1.3,0.1,2,0.1c-0.7,0.1-1.5,0.2-2.1,0.3c-0.8,0.1-1.6,0.1-2.2,0.2c-0.3,0-0.6,0.1-0.8,0.2
											c-0.2,0.1-0.4,0.2-0.5,0.5c-0.1,0.2-0.1,0.5,0,0.8c0.1,0.2,0.3,0.5,0.5,0.7c0.4,0.4,1.1,0.7,1.9,1c1.4,0.5,3.2,0.9,5.3,1
											l0,0c-0.1,0.1-0.2,0.2-0.3,0.4c-0.1,0.2,0,0.4,0,0.5c0.2,0.3,0.4,0.4,0.7,0.5c0.3,0.1,0.7,0.2,1.1,0.3
											c1.1,0.2,2.6,0.3,3.7,0.3c-0.3,0.2-0.5,0.4-0.6,0.5c-0.2,0.2-0.3,0.4-0.3,0.7c0,0.2,0.2,0.5,0.4,0.6
											c0.4,0.3,0.9,0.4,1.6,0.5s1.5,0.1,2.5,0.1c2.4-0.1,4.8-0.4,7-0.9s4-1.1,5.6-1.7c2.4-1,3.5-2.1,3.5-2.1s-1.2,1-3.6,1.8
											c-1.6,0.5-3.4,1-5.6,1.4s-4.5,0.7-6.9,0.8c-0.9,0-1.8,0-2.4-0.1s-1.1-0.2-1.3-0.4c-0.1-0.1-0.1-0.1-0.1-0.1s0-0.1,0.1-0.2
											c0.2-0.2,0.7-0.6,1.7-1.1l1.9-0.9l-2.1,0.3c-0.8,0.1-3.3,0-4.9-0.3c-0.4-0.1-0.8-0.2-1-0.3c-0.3-0.1-0.4-0.2-0.4-0.2v0.1
											c0,0,0,0,0.1-0.1c0.2-0.1,0.5-0.3,1-0.5l1.8-0.6h-1.9c-2.6,0-4.9-0.4-6.4-1c-0.8-0.3-1.3-0.6-1.7-0.9
											c-0.2-0.1-0.3-0.3-0.3-0.4s0-0.2,0-0.3c0,0,0,0,0.2-0.1c0.1-0.1,0.3-0.1,0.6-0.1c0.5-0.1,1.3-0.1,2.1-0.2
											c1.7-0.1,3.8-0.4,5.5-1.4l3.8-2.1l-4,1.5c-0.4,0.2-1.4,0.3-2.3,0.3c-1,0-2,0-2.8-0.1c-0.4,0-0.7-0.1-0.9-0.2
											c-0.1,0-0.2-0.1-0.2-0.1s0,0,0,0.1s0,0.1,0,0c0,0,0.1-0.1,0.3-0.2c0.3-0.1,0.8-0.3,1.5-0.5l5.6-1.5l-5.7,0.8
											c-3.1,0.4-6.3,1.1-9.8,0.1c-1.6-0.4-2.8-0.8-3.6-1.2c-0.4-0.2-0.7-0.4-0.8-0.5s-0.2-0.2-0.1-0.4c0-0.2,0.5-0.8,1.6-1.4
											s2.8-1.4,5-2.3l4.7-1.9L89,109c-3.9,1-7.6,1-9.8,0.5c-1.1-0.2-1.9-0.6-2.1-1c-0.1-0.2-0.1-0.3,0-0.5s0.3-0.4,0.7-0.7
											c1.1-0.8,3.8-1.4,7.9-2.3c1.4-0.3,2.8-0.6,4.1-1c-1.4,0.2-2.8,0.3-4.2,0.3c-1.7,0-4.6-0.1-6.2-0.6
											c-0.4-0.1-0.7-0.3-0.9-0.4s-0.2-0.2-0.2-0.4s0.1-0.4,0.5-0.7c0.3-0.3,0.9-0.7,1.7-1.1l2.6-1.3l-2.8,0.7
											c-1.5,0.4-3.2,0.6-4.7,0.7s-2.7-0.1-3.3-0.4c-0.3-0.1-0.4-0.3-0.4-0.4s0-0.3,0.3-0.6c0.6-0.6,2.2-1.5,5-2.6
											c1.1-0.4,2.3-0.8,3.4-1.2c-1.2,0.1-2.4,0.3-3.6,0.5c-2.1,0.4-3.6,0.9-4.7,1.2c-1.1,0.3-1.8,0.5-2.1,0.4
											C70.1,98.1,70,98,70,98v0.1c0,0,0.2-0.3,0.6-0.6c0.9-0.6,2.7-1.5,5.4-2.5l-0.3-0.6c-4.6,2.1-10.5,2.6-15,2.2
											c-2.3-0.2-4.2-0.6-5.4-1.1c-0.6-0.2-1-0.5-1.2-0.7C54,94.7,54,94.6,54,94.5s0-0.1,0.1-0.2c0.2-0.3,0.9-0.7,2.3-1.2
											c1.4-0.4,3.4-0.9,6.2-1.4l7.2-1.3L62.6,91c-4.9,0.4-6.9,0.2-10.7-0.4c-3.4-0.6-6.4-1.5-8.3-2.5c-1-0.5-1.7-1-2.1-1.4
											c-0.2-0.2-0.3-0.4-0.3-0.6s0-0.3,0.1-0.5c0,0,0.2-0.2,0.5-0.3c0.3-0.1,0.8-0.2,1.3-0.3c1.1-0.1,2.6-0.2,4.4-0.2
											c3.5,0,7.9,0,11.9-0.3c2-0.1,4-0.4,6-0.7c-2,0.2-4,0.2-6,0c-4.5-0.3-9-1.3-13.8-2.6c-4-1.1-8-2.8-11.1-5.1
											c-1.6-1.1-4.2-3.1-5.2-4.4C29.1,71.4,29,71.1,29,71s0-0.1,0-0.1s0.1-0.1,0.2-0.1c0.5-0.2,2-0.1,4.5,0.5
											c2.7,0.6,6.5,1.3,11.3,1.5c2.4,0.1,4.8,0,7.2-0.3c-2.4,0-4.8-0.1-7.1-0.4c-9-1.3-15.8-5-21.5-12.4c-1.8-2.3-2.7-4-3-5.1
											c-0.1-0.5-0.1-0.9,0.1-1.1c0.1-0.2,0.4-0.4,0.8-0.5c0,0,0.2,0,0.5,0.2c0.3,0.1,0.7,0.4,1.2,0.6c1,0.6,2.4,1.4,4,2.3
											c3.3,1.8,7.9,4,13.5,5.4l8.7,2.1l-8.5-2.8c-5.3-1.7-10.5-5-14.7-8.5c-3.2-2.6-5.8-5.4-7.6-7.9c-1.8-2.5-2.9-4.7-3-5.9
											c0-0.3,0-0.4,0-0.5s0-0.1,0.1-0.1s0.6,0.1,1.2,0.4c1.2,0.6,3.1,1.9,5.3,3.5c4.4,3.1,10.3,7.3,16,9
											c0.8,0.2,1.6,0.4,2.4,0.6c-0.7-0.4-1.4-0.8-2.1-1.2c-7.5-4.4-17.6-11-21.4-20.3c-0.6-1.5-1.1-2.9-1.3-4
											c-0.2-1.2-0.2-2.1-0.1-2.5c0.1-0.2,0.2-0.3,0.4-0.3s0.5,0,0.9,0.2c0.9,0.4,2.2,1.3,3.9,3.1c4.7,4.6,12,10.4,17.1,13.4
											C45,44,52.5,49.9,62.8,53c1.6,0.5,3.3,0.9,4.9,1.2c-1.6-0.5-3.2-1.1-4.7-1.8C49.2,46.1,38.9,32.9,33,18
											c-1.2-2.9-1.9-5-2.2-6.5c-0.2-0.7-0.3-1.3-0.3-1.7s0.1-0.6,0.1-0.6l0,0c0,0,0.1,0,0.2,0c0.2,0.1,0.5,0.2,0.9,0.5
											c0.7,0.6,1.7,1.5,2.7,2.8C39,18,45.5,26.9,49.5,31.4c7.4,8.2,13.9,13.8,20.1,17.5c3.3,2,6.5,3.5,9.2,4.9
											C82.5,55.6,85.7,57.7,87.9,60z"/>
									</g>
								</g>
								<g>
									<g>
										<defs>
											<rect id="SVGID_00000060745220692008121220000000171159745396630440_" x="13" y="4" width="128" height="128"/>
										</defs>
										<clipPath id="SVGID_00000097470788570405455250000017844745490994005134_">
											<use xlink:href="#SVGID_00000060745220692008121220000000171159745396630440_"  style="overflow:visible;"/>
										</clipPath>
										
											<path style="clip-path:url(#SVGID_00000097470788570405455250000017844745490994005134_);fill:none;stroke:#6F737A;stroke-width:1.8609;stroke-linecap:round;stroke-linejoin:round;stroke-miterlimit:10;" d="
											M87.9,60c1,1,1.7,1.9,2.4,2.8c0.6,0.8,0.9,1.4,0.9,1.4s-0.2-0.7-0.6-1.6c-0.5-1-1.2-2.1-2.2-3.1c-2.3-2.4-5.5-4.5-9.3-6.3
											c-2.8-1.4-5.9-2.9-9.2-4.9C63.8,44.7,57.3,39.1,50,31c-4-4.5-10.5-13.4-14.8-18.4c-1.1-1.2-2.1-2.2-2.8-2.8
											c-0.4-0.3-0.7-0.5-1.1-0.6c-0.2-0.1-0.3-0.1-0.5-0.1s-0.3,0.1-0.5,0.3c-0.2,0.3-0.3,0.6-0.2,1.1c0,0.5,0.1,1.1,0.3,1.8
											c0.4,1.5,1.1,3.6,2.3,6.6C38,32.3,47,44.4,58.8,51.4c-8-3.2-14.3-8-20.2-11.6c-5-3-12.4-8.8-17-13.3
											c-1.8-1.8-3.1-2.8-4.1-3.2c-0.5-0.2-0.9-0.3-1.3-0.2c-0.4,0.1-0.7,0.4-0.9,0.7c-0.3,0.7-0.3,1.7,0,3
											c0.3,1.2,0.7,2.7,1.3,4.2c3.3,8.1,11.2,14.2,18.2,18.5c-4.3-2-8.5-5-11.9-7.4c-2.2-1.6-4.1-2.9-5.4-3.6
											c-0.7-0.3-1.2-0.5-1.7-0.4c-0.2,0.1-0.5,0.2-0.6,0.5c-0.1,0.2-0.1,0.5-0.1,0.8c0.1,1.5,1.3,3.7,3.1,6.2
											c1.9,2.5,4.5,5.4,7.7,8c2.6,2.2,5.5,4.2,8.6,5.9c-2.6-1-4.9-2.2-6.8-3.2c-1.7-0.9-3-1.7-4-2.3c-0.5-0.3-0.9-0.5-1.3-0.7
											c-0.3-0.2-0.6-0.3-0.9-0.2c-0.6,0.1-1,0.4-1.3,0.8c-0.3,0.4-0.3,1-0.1,1.6c0.3,1.3,1.3,3,3.1,5.3
											c4.6,6.1,10,9.7,16.7,11.6c-2.3-0.3-4.3-0.7-5.9-1.1c-2.6-0.6-4.1-0.7-4.9-0.5c-0.2,0.1-0.4,0.2-0.5,0.3
											c-0.1,0.2-0.2,0.4-0.2,0.5c0,0.4,0.2,0.7,0.5,1.1c1.1,1.5,3.8,3.4,5.3,4.6c3.2,2.3,7.3,4.1,11.4,5.2
											c3.3,0.9,6.4,1.6,9.5,2.1c-2.6,0.1-5.3,0-7.5,0.1c-1.8,0-3.3,0.1-4.4,0.2c-0.6,0.1-1.1,0.2-1.5,0.3
											c-0.4,0.1-0.7,0.3-0.9,0.6c-0.2,0.3-0.2,0.7-0.2,1c0.1,0.3,0.2,0.6,0.5,0.9c0.5,0.6,1.3,1.1,2.3,1.6
											c2.1,1,5.1,1.9,8.5,2.5c2.4,0.4,4.2,0.7,6.4,0.7c-0.7,0.2-1.4,0.4-1.9,0.5c-1.4,0.5-2.2,0.9-2.6,1.4
											c-0.1,0.2-0.2,0.5-0.2,0.7s0.1,0.5,0.3,0.6c0.3,0.4,0.8,0.7,1.5,0.9c1.3,0.5,3.3,0.9,5.6,1.1c4.6,0.4,10.6-0.1,15.4-2.2
											c1.1-0.5,2.2-1.1,3.2-1.9c-1.2,0.4-2.3,0.8-3.5,1.2c-2.8,1.1-4.6,1.9-5.6,2.6c-0.5,0.3-0.8,0.6-0.9,1
											c-0.1,0.2,0,0.4,0.1,0.6c0.1,0.1,0.3,0.2,0.5,0.2c0.6,0.1,1.3-0.1,2.4-0.4c0.4-0.1,0.7-0.2,1.2-0.3
											c-0.9,0.5-1.5,0.9-1.9,1.3s-0.6,0.8-0.5,1.2c0.1,0.4,0.4,0.7,0.8,0.9c0.8,0.4,2.1,0.5,3.6,0.4c0.9,0,1.9-0.1,2.9-0.3
											c-0.1,0-0.1,0.1-0.2,0.1c-0.4,0.4-0.7,0.7-0.7,1.1s0.2,0.7,0.4,1c0.3,0.2,0.7,0.4,1.1,0.5c1,0.3,2.4,0.5,3.7,0.6
											c-2.6,0.6-4.5,1.1-5.5,1.9c-0.5,0.3-0.8,0.7-0.9,1c-0.2,0.4-0.1,0.8,0.1,1.1c0.4,0.6,1.3,1,2.5,1.3
											c1.7,0.4,4.2,0.4,6.9,0.1c-0.8,0.4-1.5,0.7-2.1,1c-1.1,0.6-1.8,1.2-2,1.8c-0.1,0.3,0.1,0.7,0.3,0.9c0.2,0.3,0.6,0.5,1,0.7
											c0.9,0.4,2.1,0.8,3.7,1.2c2.7,0.7,5.3,0.5,7.7,0.2c0,0.1-0.1,0.2-0.1,0.3c0,0.2,0.1,0.4,0.2,0.5s0.2,0.2,0.4,0.2
											c0.3,0.1,0.6,0.2,1,0.2c0.6,0.1,1.3,0.1,2,0.1c-0.7,0.1-1.5,0.2-2.1,0.3c-0.8,0.1-1.6,0.1-2.2,0.2c-0.3,0-0.6,0.1-0.8,0.2
											c-0.2,0.1-0.4,0.2-0.5,0.5c-0.1,0.2-0.1,0.5,0,0.8c0.1,0.2,0.3,0.5,0.5,0.7c0.4,0.4,1.1,0.7,1.9,1c1.4,0.5,3.2,0.9,5.3,1
											l0,0c-0.1,0.1-0.2,0.2-0.3,0.4c-0.1,0.2,0,0.4,0,0.5c0.2,0.3,0.4,0.4,0.7,0.5c0.3,0.1,0.7,0.2,1.1,0.3
											c1.1,0.2,2.6,0.3,3.7,0.3c-0.3,0.2-0.5,0.4-0.6,0.5c-0.2,0.2-0.3,0.4-0.3,0.7c0,0.2,0.2,0.5,0.4,0.6
											c0.4,0.3,0.9,0.4,1.6,0.5s1.5,0.1,2.5,0.1c2.4-0.1,4.8-0.4,7-0.9s4-1.1,5.6-1.7c2.4-1,3.5-2.1,3.5-2.1s-1.2,1-3.6,1.8
											c-1.6,0.5-3.4,1-5.6,1.4s-4.5,0.7-6.9,0.8c-0.9,0-1.8,0-2.4-0.1s-1.1-0.2-1.3-0.4c-0.1-0.1-0.1-0.1-0.1-0.1s0-0.1,0.1-0.2
											c0.2-0.2,0.7-0.6,1.7-1.1l1.9-0.9l-2.1,0.3c-0.8,0.1-3.3,0-4.9-0.3c-0.4-0.1-0.8-0.2-1-0.3c-0.3-0.1-0.4-0.2-0.4-0.2v0.1
											c0,0,0,0,0.1-0.1c0.2-0.1,0.5-0.3,1-0.5l1.8-0.6h-1.9c-2.6,0-4.9-0.4-6.4-1c-0.8-0.3-1.3-0.6-1.7-0.9
											c-0.2-0.1-0.3-0.3-0.3-0.4s0-0.2,0-0.3c0,0,0,0,0.2-0.1c0.1-0.1,0.3-0.1,0.6-0.1c0.5-0.1,1.3-0.1,2.1-0.2
											c1.7-0.1,3.8-0.4,5.5-1.4l3.8-2.1l-4,1.5c-0.4,0.2-1.4,0.3-2.3,0.3c-1,0-2,0-2.8-0.1c-0.4,0-0.7-0.1-0.9-0.2
											c-0.1,0-0.2-0.1-0.2-0.1s0,0,0,0.1s0,0.1,0,0c0,0,0.1-0.1,0.3-0.2c0.3-0.1,0.8-0.3,1.5-0.5l5.6-1.5l-5.7,0.8
											c-3.1,0.4-6.3,1.1-9.8,0.1c-1.6-0.4-2.8-0.8-3.6-1.2c-0.4-0.2-0.7-0.4-0.8-0.5s-0.2-0.2-0.1-0.4c0-0.2,0.5-0.8,1.6-1.4
											s2.8-1.4,5-2.3l4.7-1.9L89,109c-3.9,1-7.6,1-9.8,0.5c-1.1-0.2-1.9-0.6-2.1-1c-0.1-0.2-0.1-0.3,0-0.5s0.3-0.4,0.7-0.7
											c1.1-0.8,3.8-1.4,7.9-2.3c1.4-0.3,2.8-0.6,4.1-1c-1.4,0.2-2.8,0.3-4.2,0.3c-1.7,0-4.6-0.1-6.2-0.6
											c-0.4-0.1-0.7-0.3-0.9-0.4s-0.2-0.2-0.2-0.4s0.1-0.4,0.5-0.7c0.3-0.3,0.9-0.7,1.7-1.1l2.6-1.3l-2.8,0.7
											c-1.5,0.4-3.2,0.6-4.7,0.7s-2.7-0.1-3.3-0.4c-0.3-0.1-0.4-0.3-0.4-0.4s0-0.3,0.3-0.6c0.6-0.6,2.2-1.5,5-2.6
											c1.1-0.4,2.3-0.8,3.4-1.2c-1.2,0.1-2.4,0.3-3.6,0.5c-2.1,0.4-3.6,0.9-4.7,1.2c-1.1,0.3-1.8,0.5-2.1,0.4
											C70.1,98.1,70,98,70,98v0.1c0,0,0.2-0.3,0.6-0.6c0.9-0.6,2.7-1.5,5.4-2.5l-0.3-0.6c-4.6,2.1-10.5,2.6-15,2.2
											c-2.3-0.2-4.2-0.6-5.4-1.1c-0.6-0.2-1-0.5-1.2-0.7C54,94.7,54,94.6,54,94.5s0-0.1,0.1-0.2c0.2-0.3,0.9-0.7,2.3-1.2
											c1.4-0.4,3.4-0.9,6.2-1.4l7.2-1.3L62.6,91c-4.9,0.4-6.9,0.2-10.7-0.4c-3.4-0.6-6.4-1.5-8.3-2.5c-1-0.5-1.7-1-2.1-1.4
											c-0.2-0.2-0.3-0.4-0.3-0.6s0-0.3,0.1-0.5c0,0,0.2-0.2,0.5-0.3c0.3-0.1,0.8-0.2,1.3-0.3c1.1-0.1,2.6-0.2,4.4-0.2
											c3.5,0,7.9,0,11.9-0.3c2-0.1,4-0.4,6-0.7c-2,0.2-4,0.2-6,0c-4.5-0.3-9-1.3-13.8-2.6c-4-1.1-8-2.8-11.1-5.1
											c-1.6-1.1-4.2-3.1-5.2-4.4C29.1,71.4,29,71.1,29,71s0-0.1,0-0.1s0.1-0.1,0.2-0.1c0.5-0.2,2-0.1,4.5,0.5
											c2.7,0.6,6.5,1.3,11.3,1.5c2.4,0.1,4.8,0,7.2-0.3c-2.4,0-4.8-0.1-7.1-0.4c-9-1.3-15.8-5-21.5-12.4c-1.8-2.3-2.7-4-3-5.1
											c-0.1-0.5-0.1-0.9,0.1-1.1c0.1-0.2,0.4-0.4,0.8-0.5c0,0,0.2,0,0.5,0.2c0.3,0.1,0.7,0.4,1.2,0.6c1,0.6,2.4,1.4,4,2.3
											c3.3,1.8,7.9,4,13.5,5.4l8.7,2.1l-8.5-2.8c-5.3-1.7-10.5-5-14.7-8.5c-3.2-2.6-5.8-5.4-7.6-7.9c-1.8-2.5-2.9-4.7-3-5.9
											c0-0.3,0-0.4,0-0.5s0-0.1,0.1-0.1s0.6,0.1,1.2,0.4c1.2,0.6,3.1,1.9,5.3,3.5c4.4,3.1,10.3,7.3,16,9
											c0.8,0.2,1.6,0.4,2.4,0.6c-0.7-0.4-1.4-0.8-2.1-1.2c-7.5-4.4-17.6-11-21.4-20.3c-0.6-1.5-1.1-2.9-1.3-4
											c-0.2-1.2-0.2-2.1-0.1-2.5c0.1-0.2,0.2-0.3,0.4-0.3s0.5,0,0.9,0.2c0.9,0.4,2.2,1.3,3.9,3.1c4.7,4.6,12,10.4,17.1,13.4
											C45,44,52.5,49.9,62.8,53c1.6,0.5,3.3,0.9,4.9,1.2c-1.6-0.5-3.2-1.1-4.7-1.8C49.2,46.1,38.9,32.9,33,18
											c-1.2-2.9-1.9-5-2.2-6.5c-0.2-0.7-0.3-1.3-0.3-1.7s0.1-0.6,0.1-0.6l0,0c0,0,0.1,0,0.2,0c0.2,0.1,0.5,0.2,0.9,0.5
											c0.7,0.6,1.7,1.5,2.7,2.8C39,18,45.5,26.9,49.5,31.4c7.4,8.2,13.9,13.8,20.1,17.5c3.3,2,6.5,3.5,9.2,4.9
											C82.5,55.6,85.7,57.7,87.9,60z"/>
									</g>
								</g>
								<g>
									<g>
										<defs>
											<rect id="SVGID_00000134239090937745262810000002507959324114035371_" x="13" y="4" width="128" height="128"/>
										</defs>
										<clipPath id="SVGID_00000170280476662607573530000017158748519234783655_">
											<use xlink:href="#SVGID_00000134239090937745262810000002507959324114035371_"  style="overflow:visible;"/>
										</clipPath>
										<path style="clip-path:url(#SVGID_00000170280476662607573530000017158748519234783655_);fill:#6F737A;" d="M60.4,56
											c0.2,0,0.4,0,0.6,0c1.2,0.1,2.3,0.2,3.2,0.2c0.9,0.1,1.4,0.1,1.4,0.1S65,56.2,64.2,56c-0.8-0.2-2-0.5-3.2-0.6
											c-0.2,0-0.4,0-0.6,0c-0.4,0-0.7,0-1,0.3c-0.1,0.1-0.1,0.4-0.1,0.5c0,0.2,0.1,0.3,0.2,0.4c0.2,0.2,0.4,0.4,0.6,0.6
											c-1.3-0.5-2.4-0.8-3.2-1c-0.7-0.1-1.2-0.2-1.7-0.1c-0.4,0.1-0.8,0.2-0.9,0.6c-0.1,0.3-0.1,0.7,0.1,1.2
											c0.2,0.4,0.5,0.9,1,1.4c0.7,0.7,1.7,1.5,3.2,2.3c-1-0.2-1.9-0.5-2.6-0.8c-2.4-1.1-3.9-1.5-5-1.5c-0.5,0-0.9,0.2-1.2,0.5
											s-0.3,0.7-0.3,1.2c0.1,0.9,0.7,1.9,1.5,2.9c0.8,1.1,1.8,2.2,2.9,3.2c2.9,2.7,6.5,4.5,9.9,5.7c-2.3-0.5-4.7-1-7.5-1.1
											c-0.7,0-1.2,0-1.6,0.2c-0.4,0.1-0.7,0.4-0.9,0.7c-0.4,0.7-0.1,1.5,0.5,2.3c1.1,1.6,3.6,3.5,6.6,4.6
											c5.4,2,8.8,2.4,12.5,2.5c-1.8,0.2-3.3,0.3-4.6,0.4c-1.1,0.1-1.9,0.1-2.6,0.3c-0.7,0.1-1.2,0.3-1.5,0.7
											c-0.2,0.3-0.3,0.7-0.1,1.1c0.1,0.4,0.4,0.7,0.7,1c0.7,0.6,1.8,1.1,3.1,1.5c2.2,0.7,5,1.2,7.7,1c-0.4,0.2-0.6,0.5-0.9,0.7
											c-0.5,0.5-0.6,1-0.5,1.5c0.2,0.5,0.6,0.8,1.2,1s1.3,0.3,2.1,0.4c3.2,0.2,8-0.7,10.3-3.3c0.4-0.5,0.8-1,1-1.6
											c-0.5,0.4-1,0.7-1.5,1.2c-1.1,0.9-1.7,1.6-2,2.2c-0.1,0.3-0.2,0.6-0.1,0.8c0.1,0.3,0.3,0.5,0.5,0.6c0.5,0.2,1,0.2,1.7,0.1
											c-0.5,0.4-1,0.8-1.3,1.1c-0.8,0.8-1.4,1.4-1.4,2c0,0.3,0.1,0.7,0.4,0.9c0.3,0.2,0.7,0.3,1.1,0.4c0.5,0.1,1.2,0.1,2,0.1
											c-1.2,0.6-2,1.1-2.5,1.6c-0.3,0.4-0.5,0.8-0.4,1.2c0.1,0.4,0.4,0.7,0.9,0.9c0.8,0.4,2.2,0.6,3.7,0.7c0.9,0,1.9,0,3-0.1
											c-0.2,0.1-0.4,0.3-0.6,0.4c-0.3,0.2-0.6,0.4-0.7,0.6c-0.2,0.2-0.3,0.4-0.3,0.7c0,0.3,0.2,0.5,0.4,0.6
											c0.2,0.1,0.5,0.2,0.8,0.2c0.1,0,0.3,0,0.4,0c-0.5,0.3-0.9,0.5-1.3,0.8s-0.7,0.5-0.8,0.8c-0.2,0.3-0.2,0.7-0.1,1
											c0.2,0.3,0.4,0.5,0.8,0.7s0.8,0.3,1.4,0.4c0.9,0.2,2,0.4,3.3,0.5c-0.2,0.1-0.3,0.2-0.5,0.3c-0.4,0.3-0.7,0.6-0.8,1
											c-0.1,0.4,0.1,0.8,0.3,1.1c0.3,0.3,0.7,0.6,1.1,0.8c2.5,1.3,4,1.9,8.1,1.8c-0.1,0.1-0.2,0.1-0.3,0.2
											c-0.6,0.3-0.9,0.6-1,1.1c-0.1,0.4,0.2,0.8,0.5,1.1c0.3,0.3,0.8,0.5,1.4,0.7c1.7,0.7,4.3,1.2,6.2,1.3
											c-0.2,0.1-0.4,0.3-0.6,0.4c-0.4,0.3-0.7,0.7-0.7,1.2c0,0.4,0.3,0.8,0.6,1.1c0.3,0.3,0.8,0.5,1.3,0.7
											c1.7,0.7,4.2,1,6.4,0.8c-0.1,0.1-0.1,0.1-0.1,0.2c-0.1,0.2,0,0.4,0.1,0.5c0.2,0.3,0.5,0.4,0.9,0.4
											c0.4,0.1,0.8,0.1,1.3,0.1c2,0,3.9-0.3,5.6-0.7c1-0.3,1.8-0.5,2.5-0.8c1.1-0.5,1.5-1,1.5-1s-0.5,0.5-1.6,0.8
											c-0.7,0.2-1.5,0.4-2.6,0.6c-1.6,0.3-3.5,0.5-5.4,0.5c-0.5,0-0.9,0-1.2-0.1c-0.3-0.1-0.4-0.2-0.4-0.2v0.1
											c0,0,0-0.1,0.1-0.1c0.2-0.2,0.6-0.4,1.1-0.7l4.3-2l-4.5,1.3c-2.2,0.7-5.7,0.4-7.7-0.4c-0.5-0.2-0.9-0.4-1.2-0.6
											c-0.3-0.2-0.4-0.4-0.4-0.6s0.1-0.4,0.4-0.6c0.3-0.3,0.9-0.6,1.7-0.9l1.8-0.7H113c-1.6,0-5.3-0.6-7.4-1.4
											c-0.5-0.2-0.9-0.4-1.2-0.6c-0.2-0.2-0.3-0.3-0.3-0.4s0.2-0.3,0.7-0.6c0.5-0.3,1.2-0.5,2.3-0.8l3-0.8l-3.1,0.1
											c-5.8,0.2-7.1-0.2-10-1.7c-0.4-0.2-0.8-0.5-0.9-0.7c-0.2-0.2-0.2-0.3-0.2-0.5c0-0.1,0.2-0.3,0.5-0.6
											c0.4-0.2,0.9-0.5,1.7-0.7c0.8-0.2,1.5-0.4,2.3-0.5c-0.8,0-1.6-0.1-2.4-0.2c-2-0.2-3.6-0.4-4.7-0.6c-0.6-0.1-1-0.3-1.3-0.4
											s-0.5-0.3-0.5-0.4s-0.1-0.1,0-0.3c0.1-0.2,0.3-0.4,0.7-0.6c0.7-0.5,1.9-1.1,3.6-1.8l4.3-1.8l-4.5,1.1
											c-1.3,0.3-2.3,0.5-2.9,0.5c-0.3,0-0.5-0.1-0.5-0.1c-0.1,0,0,0,0,0s0-0.1,0.2-0.3c0.1-0.1,0.3-0.3,0.6-0.5
											c0.6-0.4,1.4-0.9,2.5-1.3l3-1.3l-3.2,0.6c-1.7,0.3-3.5,0.5-5,0.4c-1.5,0-2.8-0.3-3.4-0.6c-0.3-0.2-0.5-0.3-0.5-0.5
											c0-0.1,0-0.3,0.3-0.6c0.5-0.6,1.9-1.4,4.5-2.3l3-1.1l-3.1,0.4c-2,0.2-3.3,0.3-4.2,0.2c-0.4-0.1-0.7-0.2-0.8-0.3
											s-0.2-0.1-0.1-0.3c0-0.3,0.4-0.9,1.2-1.6c0.8-0.7,1.9-1.6,3.4-2.6l5.3-3.6l-5.7,3c-0.8,0.4-1.6,0.7-2.2,0.8
											c-0.6,0.1-1.2,0.1-1.4,0c-0.1,0-0.1-0.1-0.1-0.1c0-0.1,0-0.2,0.1-0.4c0.2-0.4,0.8-1.1,1.8-1.9l-0.5-0.5
											c-2,2.3-6.7,3.2-9.8,3c-0.8-0.1-1.4-0.2-1.9-0.3c-0.5-0.2-0.7-0.4-0.8-0.6c-0.1-0.2,0-0.4,0.3-0.8c0.4-0.4,1-0.8,2.1-1.4
											l1.9-1l-2.1,0.3c-3,0.4-6.5,0-9-0.9c-1.3-0.4-2.3-0.9-2.9-1.4c-0.3-0.2-0.5-0.5-0.5-0.7c-0.1-0.2-0.1-0.3,0.1-0.5
											c0.1-0.1,0.4-0.3,1-0.4s1.5-0.2,2.5-0.2c2.1-0.1,5.1-0.3,8.9-1.1c1-0.2,1.9-0.4,2.9-0.6c-1,0-2,0-3,0
											c-5.7,0-9.2,0.3-16.5-2.5c-2.9-1.1-5.3-2.9-6.3-4.4c-0.5-0.7-0.6-1.3-0.4-1.6c0.1-0.2,0.2-0.3,0.5-0.4s0.8-0.2,1.3-0.1
											c4.2,0.2,7.6,1.4,11.5,1.8c0.9,0.1,1.8,0.1,2.7,0.1c-0.9-0.2-1.7-0.5-2.6-0.8c-4.2-1.3-9.5-3.2-13.5-6.9
											c-1.1-1-2.1-2.1-2.8-3.1c-0.8-1-1.3-2-1.4-2.6c0-0.3,0-0.5,0.1-0.6s0.3-0.2,0.7-0.2c0.8,0,2.4,0.4,4.7,1.4
											c1.5,0.7,3.4,1,5.3,1.4l3,0.7l-2.8-1.4c-2.7-1.3-4.3-2.5-5.2-3.4c-0.5-0.5-0.7-0.9-0.9-1.2c-0.1-0.3-0.1-0.5-0.1-0.6
											s0.1-0.1,0.4-0.2c0.3,0,0.8,0,1.4,0.1c1.3,0.3,3.2,0.9,5.9,2.1l3.8,1.7L63,58.5c-1.6-1.1-2.6-1.9-2.9-2.3
											C60,56.1,59.9,56,59.9,56v0.1C59.9,56.2,60,56,60.4,56z"/>
									</g>
								</g>
								<g>
									<g>
										<defs>
											<rect id="SVGID_00000109735029790639199670000012607861792876212134_" x="13" y="4" width="128" height="128"/>
										</defs>
										<clipPath id="SVGID_00000026860204050899741950000018145800627147520696_">
											<use xlink:href="#SVGID_00000109735029790639199670000012607861792876212134_"  style="overflow:visible;"/>
										</clipPath>
										
											<path style="clip-path:url(#SVGID_00000026860204050899741950000018145800627147520696_);fill:none;stroke:#6F737A;stroke-width:1.8609;stroke-linecap:round;stroke-linejoin:round;stroke-miterlimit:10;" d="
											M60.4,56c0.2,0,0.4,0,0.6,0c1.2,0.1,2.3,0.2,3.2,0.2c0.9,0.1,1.4,0.1,1.4,0.1S65,56.2,64.2,56c-0.8-0.2-2-0.5-3.2-0.6
											c-0.2,0-0.4,0-0.6,0c-0.4,0-0.7,0-1,0.3c-0.1,0.1-0.1,0.4-0.1,0.5c0,0.2,0.1,0.3,0.2,0.4c0.2,0.2,0.4,0.4,0.6,0.6
											c-1.3-0.5-2.4-0.8-3.2-1c-0.7-0.1-1.2-0.2-1.7-0.1c-0.4,0.1-0.8,0.2-0.9,0.6c-0.1,0.3-0.1,0.7,0.1,1.2
											c0.2,0.4,0.5,0.9,1,1.4c0.7,0.7,1.7,1.5,3.2,2.3c-1-0.2-1.9-0.5-2.6-0.8c-2.4-1.1-3.9-1.5-5-1.5c-0.5,0-0.9,0.2-1.2,0.5
											s-0.3,0.7-0.3,1.2c0.1,0.9,0.7,1.9,1.5,2.9c0.8,1.1,1.8,2.2,2.9,3.2c2.9,2.7,6.5,4.5,9.9,5.7c-2.3-0.5-4.7-1-7.5-1.1
											c-0.7,0-1.2,0-1.6,0.2c-0.4,0.1-0.7,0.4-0.9,0.7c-0.4,0.7-0.1,1.5,0.5,2.3c1.1,1.6,3.6,3.5,6.6,4.6
											c5.4,2,8.8,2.4,12.5,2.5c-1.8,0.2-3.3,0.3-4.6,0.4c-1.1,0.1-1.9,0.1-2.6,0.3c-0.7,0.1-1.2,0.3-1.5,0.7
											c-0.2,0.3-0.3,0.7-0.1,1.1c0.1,0.4,0.4,0.7,0.7,1c0.7,0.6,1.8,1.1,3.1,1.5c2.2,0.7,5,1.2,7.7,1c-0.4,0.2-0.6,0.5-0.9,0.7
											c-0.5,0.5-0.6,1-0.5,1.5c0.2,0.5,0.6,0.8,1.2,1s1.3,0.3,2.1,0.4c3.2,0.2,8-0.7,10.3-3.3c0.4-0.5,0.8-1,1-1.6
											c-0.5,0.4-1,0.7-1.5,1.2c-1.1,0.9-1.7,1.6-2,2.2c-0.1,0.3-0.2,0.6-0.1,0.8c0.1,0.3,0.3,0.5,0.5,0.6c0.5,0.2,1,0.2,1.7,0.1
											c-0.5,0.4-1,0.8-1.3,1.1c-0.8,0.8-1.4,1.4-1.4,2c0,0.3,0.1,0.7,0.4,0.9c0.3,0.2,0.7,0.3,1.1,0.4c0.5,0.1,1.2,0.1,2,0.1
											c-1.2,0.6-2,1.1-2.5,1.6c-0.3,0.4-0.5,0.8-0.4,1.2c0.1,0.4,0.4,0.7,0.9,0.9c0.8,0.4,2.2,0.6,3.7,0.7c0.9,0,1.9,0,3-0.1
											c-0.2,0.1-0.4,0.3-0.6,0.4c-0.3,0.2-0.6,0.4-0.7,0.6c-0.2,0.2-0.3,0.4-0.3,0.7c0,0.3,0.2,0.5,0.4,0.6
											c0.2,0.1,0.5,0.2,0.8,0.2c0.1,0,0.3,0,0.4,0c-0.5,0.3-0.9,0.5-1.3,0.8s-0.7,0.5-0.8,0.8c-0.2,0.3-0.2,0.7-0.1,1
											c0.2,0.3,0.4,0.5,0.8,0.7s0.8,0.3,1.4,0.4c0.9,0.2,2,0.4,3.3,0.5c-0.2,0.1-0.3,0.2-0.5,0.3c-0.4,0.3-0.7,0.6-0.8,1
											c-0.1,0.4,0.1,0.8,0.3,1.1c0.3,0.3,0.7,0.6,1.1,0.8c2.5,1.3,4,1.9,8.1,1.8c-0.1,0.1-0.2,0.1-0.3,0.2
											c-0.6,0.3-0.9,0.6-1,1.1c-0.1,0.4,0.2,0.8,0.5,1.1c0.3,0.3,0.8,0.5,1.4,0.7c1.7,0.7,4.3,1.2,6.2,1.3
											c-0.2,0.1-0.4,0.3-0.6,0.4c-0.4,0.3-0.7,0.7-0.7,1.2c0,0.4,0.3,0.8,0.6,1.1c0.3,0.3,0.8,0.5,1.3,0.7
											c1.7,0.7,4.2,1,6.4,0.8c-0.1,0.1-0.1,0.1-0.1,0.2c-0.1,0.2,0,0.4,0.1,0.5c0.2,0.3,0.5,0.4,0.9,0.4
											c0.4,0.1,0.8,0.1,1.3,0.1c2,0,3.9-0.3,5.6-0.7c1-0.3,1.8-0.5,2.5-0.8c1.1-0.5,1.5-1,1.5-1s-0.5,0.5-1.6,0.8
											c-0.7,0.2-1.5,0.4-2.6,0.6c-1.6,0.3-3.5,0.5-5.4,0.5c-0.5,0-0.9,0-1.2-0.1c-0.3-0.1-0.4-0.2-0.4-0.2v0.1
											c0,0,0-0.1,0.1-0.1c0.2-0.2,0.6-0.4,1.1-0.7l4.3-2l-4.5,1.3c-2.2,0.7-5.7,0.4-7.7-0.4c-0.5-0.2-0.9-0.4-1.2-0.6
											c-0.3-0.2-0.4-0.4-0.4-0.6s0.1-0.4,0.4-0.6c0.3-0.3,0.9-0.6,1.7-0.9l1.8-0.7H113c-1.6,0-5.3-0.6-7.4-1.4
											c-0.5-0.2-0.9-0.4-1.2-0.6c-0.2-0.2-0.3-0.3-0.3-0.4s0.2-0.3,0.7-0.6c0.5-0.3,1.2-0.5,2.3-0.8l3-0.8l-3.1,0.1
											c-5.8,0.2-7.1-0.2-10-1.7c-0.4-0.2-0.8-0.5-0.9-0.7c-0.2-0.2-0.2-0.3-0.2-0.5c0-0.1,0.2-0.3,0.5-0.6
											c0.4-0.2,0.9-0.5,1.7-0.7c0.8-0.2,1.5-0.4,2.3-0.5c-0.8,0-1.6-0.1-2.4-0.2c-2-0.2-3.6-0.4-4.7-0.6c-0.6-0.1-1-0.3-1.3-0.4
											s-0.5-0.3-0.5-0.4s-0.1-0.1,0-0.3c0.1-0.2,0.3-0.4,0.7-0.6c0.7-0.5,1.9-1.1,3.6-1.8l4.3-1.8l-4.5,1.1
											c-1.3,0.3-2.3,0.5-2.9,0.5c-0.3,0-0.5-0.1-0.5-0.1c-0.1,0,0,0,0,0s0-0.1,0.2-0.3c0.1-0.1,0.3-0.3,0.6-0.5
											c0.6-0.4,1.4-0.9,2.5-1.3l3-1.3l-3.2,0.6c-1.7,0.3-3.5,0.5-5,0.4c-1.5,0-2.8-0.3-3.4-0.6c-0.3-0.2-0.5-0.3-0.5-0.5
											c0-0.1,0-0.3,0.3-0.6c0.5-0.6,1.9-1.4,4.5-2.3l3-1.1l-3.1,0.4c-2,0.2-3.3,0.3-4.2,0.2c-0.4-0.1-0.7-0.2-0.8-0.3
											s-0.2-0.1-0.1-0.3c0-0.3,0.4-0.9,1.2-1.6c0.8-0.7,1.9-1.6,3.4-2.6l5.3-3.6l-5.7,3c-0.8,0.4-1.6,0.7-2.2,0.8
											c-0.6,0.1-1.2,0.1-1.4,0c-0.1,0-0.1-0.1-0.1-0.1c0-0.1,0-0.2,0.1-0.4c0.2-0.4,0.8-1.1,1.8-1.9l-0.5-0.5
											c-2,2.3-6.7,3.2-9.8,3c-0.8-0.1-1.4-0.2-1.9-0.3c-0.5-0.2-0.7-0.4-0.8-0.6c-0.1-0.2,0-0.4,0.3-0.8c0.4-0.4,1-0.8,2.1-1.4
											l1.9-1l-2.1,0.3c-3,0.4-6.5,0-9-0.9c-1.3-0.4-2.3-0.9-2.9-1.4c-0.3-0.2-0.5-0.5-0.5-0.7c-0.1-0.2-0.1-0.3,0.1-0.5
											c0.1-0.1,0.4-0.3,1-0.4s1.5-0.2,2.5-0.2c2.1-0.1,5.1-0.3,8.9-1.1c1-0.2,1.9-0.4,2.9-0.6c-1,0-2,0-3,0
											c-5.7,0-9.2,0.3-16.5-2.5c-2.9-1.1-5.3-2.9-6.3-4.4c-0.5-0.7-0.6-1.3-0.4-1.6c0.1-0.2,0.2-0.3,0.5-0.4s0.8-0.2,1.3-0.1
											c4.2,0.2,7.6,1.4,11.5,1.8c0.9,0.1,1.8,0.1,2.7,0.1c-0.9-0.2-1.7-0.5-2.6-0.8c-4.2-1.3-9.5-3.2-13.5-6.9
											c-1.1-1-2.1-2.1-2.8-3.1c-0.8-1-1.3-2-1.4-2.6c0-0.3,0-0.5,0.1-0.6s0.3-0.2,0.7-0.2c0.8,0,2.4,0.4,4.7,1.4
											c1.5,0.7,3.4,1,5.3,1.4l3,0.7l-2.8-1.4c-2.7-1.3-4.3-2.5-5.2-3.4c-0.5-0.5-0.7-0.9-0.9-1.2c-0.1-0.3-0.1-0.5-0.1-0.6
											s0.1-0.1,0.4-0.2c0.3,0,0.8,0,1.4,0.1c1.3,0.3,3.2,0.9,5.9,2.1l3.8,1.7L63,58.5c-1.6-1.1-2.6-1.9-2.9-2.3
											C60,56.1,59.9,56,59.9,56v0.1C59.9,56.2,60,56,60.4,56z"/>
									</g>
								</g>
							</g>
						</g>
					</g>
				</g>
			</g>
		</g>
	</g>
</g>
</svg>
