<?xml version="1.0" encoding="UTF-8" standalone="no"?>
<!DOCTYPE svg PUBLIC "-//W3C//DTD SVG 1.1//EN" "http://www.w3.org/Graphics/SVG/1.1/DTD/svg11.dtd">
<svg width="100%" height="100%" viewBox="0 0 2064 2064" version="1.1" xmlns="http://www.w3.org/2000/svg" xmlns:xlink="http://www.w3.org/1999/xlink" xml:space="preserve" xmlns:serif="http://www.serif.com/" style="fill-rule:evenodd;clip-rule:evenodd;stroke-linecap:round;stroke-linejoin:round;stroke-miterlimit:10;">
    <g opacity="0">
        <rect x="0.3" y="0.8" width="2063" height="2063" style="fill:white;"/>
        <path d="M2062.8,1.3L2062.8,2063.3L0.8,2063.3L0.8,1.3L2062.8,1.3M2063.8,0.3L-0.2,0.3L-0.2,2064.3L2063.8,2064.3L2063.8,0.3Z" style="fill-rule:nonzero;"/>
    </g>
    <g>
        <path id="path4797" d="M1972.3,1614.1C1939.1,1600.7 1897.7,1587.3 1855.9,1567.5C1771.9,1527.8 1684.2,1461.6 1631.7,1407.8C1498.5,1271.4 1403.8,1103.7 1305.8,937.4C1279.5,892.8 1256.8,875.8 1238.9,874C1230,873.1 1222.3,876.7 1218.1,882.7C1216.8,884.6 1215.8,886.6 1215.2,888.8C1196.8,873.2 1167.7,854.2 1136.9,838.4C1099.7,819.3 1060.8,804.4 1033.7,808.5C1032.5,808.7 1030.8,809.5 1029.8,810.9C1028.8,812.3 1028.6,813.8 1028.7,814.7C1028.8,816.6 1029.3,817.3 1029.8,818.1C1030.7,819.7 1031.8,821.2 1033.4,823.1C1036.6,826.8 1041.4,831.7 1048,837.5C1055,843.6 1063.9,850.7 1074.6,858.1C1025.2,846.1 982.5,840.9 948.1,840.6C905.5,840.2 875.8,846.7 860.6,859.1C859,860.4 857.5,862.6 857.3,865C857,867.4 857.9,869.6 858.9,871.2C861,874.5 864.1,876.8 868.2,879.4C876.5,884.7 889.4,890.5 906.6,897C928.5,905.3 957.2,914.6 991.2,924.3C985.9,924.3 981.1,924.4 976.6,924.7C957.7,925.8 945.7,929.1 938.7,935.7C935.2,939 933.2,943.6 933.5,948.2C933.8,952.7 935.9,956.8 938.9,960.6C945,968.1 955.2,974.7 968.3,980.3C1004.4,995.8 1059.1,1010.6 1097.4,1019.3C1076.1,1022.9 1061.7,1026.5 1052.4,1030.2C1044.9,1033.1 1039.5,1036.6 1038.1,1042.7C1037.4,1045.8 1038.1,1049 1039.5,1051.5C1040.9,1054 1042.9,1056 1045.3,1058C1054.9,1065.7 1071.8,1072.1 1092.4,1078.1C1118.7,1085.7 1150.6,1092 1179.1,1095C1165,1098.3 1153.9,1101.4 1145.7,1104.7C1138.1,1107.7 1132.6,1110.8 1129.4,1116.1C1126.3,1121.4 1127.6,1128.1 1131.3,1133.4C1138,1142.9 1148.6,1148.2 1160.4,1150.5C1172.2,1152.8 1185.4,1152.3 1198.6,1150.2C1225,1146 1251.3,1135.6 1266,1125.2C1275.2,1118.6 1282.7,1110 1288,1100C1278.1,1104.5 1268.6,1110 1259.7,1116.2C1233,1134.8 1220,1154.3 1218.4,1170.5C1217.8,1177 1219.2,1183.1 1222.8,1187.7C1226.4,1192.4 1232,1195.2 1238.5,1195.9C1246.6,1196.8 1256.1,1194.7 1266.8,1189.3C1263.6,1196.1 1261.9,1202 1261.4,1207.3C1260.9,1212.3 1261.7,1217 1264.1,1220.7C1266.5,1224.4 1270.5,1226.8 1274.7,1227.7C1283.2,1229.6 1293.1,1227 1304.1,1221.6C1311.3,1218.1 1319,1213.2 1326.8,1207C1326,1215.2 1326,1224.4 1326.5,1233.6C1327.5,1249.8 1330.3,1266.2 1334.2,1278.3C1336.2,1284.3 1338.3,1289.3 1341.4,1293C1343,1294.8 1344.9,1296.5 1347.6,1297.3C1350.3,1298.1 1353.5,1297.4 1355.8,1295.9C1359.9,1293.1 1362.2,1288.8 1364.4,1282.3C1371.2,1321.2 1387.2,1362 1402.3,1389.8C1407.3,1398.9 1412.1,1406.6 1416.7,1412.4C1421.3,1418.2 1425,1422.5 1430.5,1424.1C1433.3,1424.9 1437.1,1424.4 1439.6,1422.2C1440.3,1421.6 1440.9,1420.9 1441.4,1420.1C1445.2,1429.6 1449.8,1438.6 1455.5,1446.2C1461.4,1453.8 1468.6,1460 1477.7,1463C1481.4,1464.2 1485.4,1464.9 1489.6,1465C1485.2,1469.2 1481.4,1473.2 1478.3,1476.9C1475.2,1480.5 1472.8,1483.8 1471.2,1487.1C1469.6,1490.5 1468.6,1494.4 1470.2,1498.2C1471.8,1502 1475.5,1504.3 1479.5,1505.3C1483.5,1506.4 1488.3,1506.6 1494.4,1506.4C1502,1506.1 1511.7,1504.9 1523.9,1502.8C1522,1504.3 1520.2,1505.8 1518.7,1507.1C1512.9,1512.2 1509.4,1515.8 1507.9,1520.7C1507.2,1523.1 1507.4,1526.1 1508.6,1528.3C1509.8,1530.6 1511.6,1532 1513.5,1533C1517.1,1535.1 1521.2,1536.2 1525.8,1537.5C1534.3,1539.9 1545.1,1541 1555.1,1542C1552.9,1545.7 1551.7,1549.6 1551.4,1553.6C1551,1560.6 1553.8,1567.2 1558.3,1573C1567.3,1584.5 1583.1,1593.9 1601.3,1601.7C1619.5,1609.5 1639.9,1615.5 1658.2,1618.8C1676.5,1622.1 1692.2,1623.2 1702.9,1619.6C1709.6,1617.3 1715.3,1612.9 1719.1,1607C1712.8,1607.4 1706.6,1608 1700.4,1608.9C1680.1,1611.7 1667,1616.3 1659,1622.9C1655,1626.2 1652.3,1630.2 1651.5,1634.7C1650.7,1639.2 1652,1643.7 1654.4,1647.5C1659.2,1655 1668.2,1660.7 1679.8,1665C1689.5,1668.6 1701.2,1671 1713.9,1671.7C1712.7,1676.1 1712.3,1680.1 1712.7,1683.8C1713.3,1689.4 1716,1694.3 1720,1697.5C1728,1703.7 1739.3,1704 1751.4,1703C1763.5,1702 1776.8,1699.3 1788.6,1696.8C1790.5,1696.4 1792.4,1696 1794.2,1695.7C1788.1,1700.7 1784,1705.3 1781.4,1709.7C1779,1713.7 1777.9,1718.2 1779.3,1722.3C1780.7,1726.5 1784.4,1729.1 1788.2,1730.5C1795.9,1733.3 1806.2,1733.1 1818.8,1731.1C1825.2,1730.1 1832,1728.5 1839.3,1726.5C1838.4,1728.1 1837.6,1729.7 1837,1731.3C1834.3,1738.6 1836.1,1746.3 1840.7,1751.5C1849.9,1761.9 1867.5,1765.6 1886.6,1764.6L1880.8,1759.9C1881.8,1767.4 1883.9,1775 1888.3,1781.8C1891.9,1787.1 1896.9,1790.9 1902.3,1792.9C1913.5,1796.8 1925,1795.4 1931.4,1794.6C1938.5,1793.7 1942.7,1793 1942.7,1793C1942.7,1793 1938.4,1792.5 1931.4,1791.7C1925.1,1791 1913.7,1790 1905.6,1785.4C1902,1783.5 1898.9,1780.3 1896.9,1776.5C1894,1771.3 1892.9,1765.1 1891.8,1758.2L1891,1753.1C1889.3,1753.3 1887.7,1753.4 1886,1753.5C1869,1754.4 1853.8,1749.7 1849,1744.2C1846.6,1741.4 1845.9,1739.2 1847.4,1735.1C1848.9,1731 1853.4,1725.1 1862.5,1718.3L1896.6,1693.1L1857.2,1708.7C1842.7,1714.5 1828.7,1718.3 1817.1,1720.2C1805.5,1722.1 1796.1,1721.6 1792.1,1720.2C1790.1,1719.5 1789.8,1718.9 1789.8,1718.8C1789.8,1718.7 1789.5,1717.8 1791,1715.4C1793.8,1710.6 1802.8,1702.1 1819.4,1691.5C1823.3,1689 1827.3,1686.6 1831.4,1684.3C1826.7,1682.3 1821.6,1681.3 1816.4,1681.3C1808.7,1681.3 1798.3,1683.6 1786.4,1686.1C1774.5,1688.6 1761.6,1691.2 1750.5,1692.1C1739.4,1693 1730.4,1691.7 1726.8,1688.9C1725,1687.5 1724,1686 1723.7,1682.9C1723.4,1679.8 1724.1,1675 1726.7,1668.6C1727.8,1665.9 1729,1663.3 1730.4,1660.7C1727.4,1660.9 1724.5,1661 1721.5,1661C1707,1661 1693.8,1658.5 1683.6,1654.8C1673.4,1651.1 1666.3,1645.8 1663.7,1641.8C1662.4,1639.8 1662.2,1638.3 1662.4,1636.9C1662.6,1635.5 1663.5,1633.8 1666.1,1631.7C1671.2,1627.5 1682.8,1622.8 1702,1620.1L1699.5,1609.4C1693.2,1611.5 1677.8,1611.3 1660.3,1608.2C1642.8,1605 1623,1599.2 1605.7,1591.8C1588.5,1584.4 1573.9,1575.2 1567.1,1566.4C1563.7,1562 1562.3,1558.1 1562.5,1554.4C1562.7,1550.7 1564.5,1546.6 1569.5,1541.9C1572.7,1538.9 1576.4,1536.4 1580.3,1534.5C1575.7,1533.7 1571,1533 1566.3,1532.4C1553.4,1530.8 1538,1529.7 1528.7,1527.1C1524.2,1525.8 1520.5,1524.6 1519,1523.7C1518.2,1523.3 1518.2,1523 1518.3,1523.3C1518.5,1523.6 1518.4,1524.3 1518.5,1524C1518.6,1523.5 1520.7,1520.2 1525.9,1515.6C1531.1,1511.1 1539.2,1505 1550.7,1497.2C1559.4,1491.3 1568.3,1485.5 1577.4,1480C1567.1,1482.6 1556.8,1485 1546.5,1487.2C1522.1,1492.4 1504.9,1495.1 1493.9,1495.5C1488.4,1495.7 1484.5,1495.4 1482.3,1494.8C1480.1,1494.2 1480.2,1493.8 1480.4,1494.1C1480.5,1494.4 1480.2,1493.9 1481.2,1492C1482.1,1490.1 1484,1487.4 1486.7,1484.2C1492.1,1477.8 1500.7,1469.7 1510.8,1460.6L1531.5,1441.8L1505.2,1451.3C1495.3,1454.9 1487.7,1454.8 1481.2,1452.7C1474.7,1450.5 1469.2,1446.1 1464.3,1439.7C1454.4,1426.9 1447.7,1406.6 1442.4,1387.3L1416.9,1293.9L1431.6,1389.6C1433.4,1401 1433.4,1408.7 1432.7,1412.3C1432.4,1414.1 1431.8,1414.6 1432.2,1414.2C1432.6,1413.9 1433.9,1413.8 1433.7,1413.7C1433.3,1413.6 1429.4,1410.9 1425.5,1405.8C1421.5,1400.7 1416.9,1393.4 1412.1,1384.7C1393.1,1349.7 1372.2,1291.1 1372.2,1247L1372.3,1171.8L1361.2,1246.1C1359.1,1260 1356.9,1270 1354.7,1276.8C1352.5,1283.5 1349.9,1286.7 1349.7,1286.9C1349.6,1287 1350.4,1286.7 1350.8,1286.8C1351.1,1286.9 1350.7,1286.8 1350.1,1286C1348.7,1284.4 1346.7,1280.3 1344.9,1275C1341.4,1264.3 1338.6,1248.5 1337.7,1233.1C1336.8,1217.7 1337.8,1202.6 1340.8,1194.1L1348.5,1172.2L1331.8,1188.3C1320.5,1199.1 1309.2,1207.1 1299.4,1211.8C1289.6,1216.5 1281.4,1218 1277.3,1217C1275.2,1216.5 1274.3,1215.8 1273.6,1214.7C1272.9,1213.6 1272.3,1211.7 1272.6,1208.4C1273.2,1201.8 1277.8,1190.3 1288.2,1175L1308.8,1144.9L1280.2,1167.5C1262.4,1181.6 1248,1185.9 1239.9,1185C1235.8,1184.6 1233.4,1183.1 1231.8,1181C1230.2,1178.9 1229.3,1175.9 1229.7,1171.6C1230.7,1160.7 1241.3,1142.7 1266.3,1125.3L1259.9,1116.3C1247.7,1125 1221.9,1135.5 1197.2,1139.4C1184.9,1141.3 1172.8,1141.7 1162.9,1139.7C1153,1137.8 1145.4,1133.7 1140.8,1127.1C1138.4,1123.7 1138.6,1123.1 1139.3,1121.8C1140.1,1120.5 1143.5,1117.7 1150.1,1115.1C1163.4,1109.8 1188.2,1104.3 1224,1096.8L1296.9,1081.5L1222.5,1085.9C1191.6,1087.7 1135.9,1079.2 1095.8,1067.6C1075.7,1061.8 1059.3,1054.9 1052.5,1049.5C1050.8,1048.2 1049.8,1046.9 1049.4,1046.2C1049,1045.5 1049.1,1045.5 1049.1,1045.5C1049.1,1045.4 1050.7,1043 1056.7,1040.6C1067.8,1036.2 1091.1,1031 1129.6,1025.8C1148.4,1023.2 1167.2,1021.1 1186.1,1019.4C1167.3,1019.7 1148.4,1018.1 1129.9,1014.8C1098.8,1009.3 1018.5,989.9 972.9,970.3C960.9,965.1 951.9,958.9 947.8,953.8C945.7,951.2 944.9,949.1 944.8,947.8C944.7,946.5 945,945.6 946.6,944C949.9,940.9 959.9,937 977.6,936C995.3,934.9 1020.6,936.3 1054.6,941.3L1166.4,957.7L1056.7,930.4C995.2,915.1 944.4,899.7 910.8,887C894,880.6 881.5,874.8 874.4,870.4C870.9,868.2 868.8,866.1 868.5,865.6C868.3,865.3 868.6,865.7 868.5,866.5C868.4,867.3 867.8,868 867.8,868C878.7,859.1 907,851.6 948.2,852C989.5,852.4 1043.9,860.1 1108.1,878.8L1156.4,892.9L1112.3,868.6C1087.3,854.9 1068,840.4 1055.4,829.5C1049.1,824 1044.5,819.4 1041.9,816.3C1040.6,814.8 1039.8,813.5 1039.6,813.3C1039.5,813.2 1039.8,813.2 1039.8,814.5C1039.8,815.2 1039.7,816.4 1038.8,817.7C1037.9,819 1036.3,819.6 1035.4,819.8C1056.7,816.6 1095.6,829.9 1131.9,848.6C1168.2,867.3 1202.7,891.2 1217.3,906.1L1236.3,925.5L1226.3,900.2C1224.7,896.1 1225.2,892.1 1227.1,889.4C1229,886.7 1232.1,884.8 1237.7,885.4C1249.1,886.5 1270.7,900.1 1296.2,943.4C1394.1,1109.6 1489.3,1278.2 1623.7,1415.9C1677.4,1470.8 1765.5,1537.4 1851.1,1577.9C1893.8,1598.1 1935.5,1611.6 1968.1,1624.8C1985.7,1631.9 2013.1,1649.8 2026.3,1653.1C2037.6,1655.4 1993.6,1622.7 1972.3,1614.1Z" style="fill:rgb(161,161,161);fill-rule:nonzero;stroke:rgb(161,161,161);stroke-width:30px;"/>
        <path id="path4807" d="M1207.5,902.5C1223.6,919.1 1235.5,932.9 1245.9,947.4C1255.3,960.6 1260.6,970.3 1260.6,970.3C1260.6,970.3 1258,959.6 1250.7,944.6C1243.1,928.9 1231.6,911.4 1215.5,894.8C1178.2,856.4 1126.5,822.6 1065.1,792.5C1020.4,770.6 970.4,745.9 917,714C818.7,655.3 714.2,566.3 596.2,434.3C532.7,363.3 428,219.1 357.5,139.3C339.9,119.4 324.4,103.4 311.9,93.5C305.6,88.5 300.1,84.9 294.8,83.1C292.1,82.2 289.5,81.7 286.7,82.1C283.9,82.5 281.2,84 279.3,86.2C275.6,90.6 274.9,96.5 275.3,104C275.6,111.6 277.3,121.1 280.4,133.2C286.5,157.5 298.3,191.9 317,239C403,456.8 547.7,652.1 739.1,764.3C609.7,712.6 508.9,635.9 412.7,578.1C332.5,529.9 213.4,436.3 139.1,363.1C110.4,334.8 89.1,318.6 72.8,311.6C64.6,308.1 57.5,306.7 51.2,308.2C44.9,309.6 40,314.3 37.4,320.1C32.2,331.7 33.3,348.1 37.5,368C41.7,387.9 49.3,411.1 59.2,435.1C113.1,566.3 240.3,663.6 351.9,733.3C283.1,700.7 214.4,652.3 159.4,613.3C123.6,587.9 93.8,566.6 72.4,555.9C61.7,550.5 53.2,547.2 45.3,549.1C41.3,550 37.7,553 35.9,556.9C34.2,560.8 33.9,565.2 34.4,570.4C36.7,595.1 54.7,630.4 84.8,671.1C114.9,711.8 157.2,757.4 208.8,800.3C250.6,835 297.7,867.9 347.7,894.8C305.2,877.9 268.3,859.3 237.8,842.6C211.1,828 189.4,814.8 173.1,805.4C164.9,800.7 158.1,797 152.5,794.5C146.9,792 142.8,790.1 137.6,791.3C128.7,793.4 121.4,797.7 117.3,804.7C113.2,811.7 112.7,820.6 115.1,830.9C119.8,851.4 135.8,879 164.8,917C239.4,1014.6 326.4,1073.8 433.9,1104.1C396.1,1099.4 364.2,1093 338.4,1086.9C296.5,1077.1 272.9,1074.9 259.2,1079.3C255.8,1080.4 252.8,1082.1 250.6,1084.5C248.4,1087 247.3,1090.2 247.2,1093.4C247.1,1099.6 250.2,1105.3 254.6,1111.3C272,1135.4 315.2,1166.5 340.4,1184.7C391.9,1221.9 457.4,1250.2 523.6,1268.1C576.7,1282.4 627.3,1294.4 677.4,1302.1C634.8,1303.1 592.7,1302.9 556.5,1303.3C528.3,1303.6 503.6,1304.4 484.9,1306.6C475.5,1307.7 467.6,1309.1 461.3,1311.1C455,1313.1 449.8,1315.6 446.9,1320.6C444,1325.5 442.9,1331.1 443.8,1336.4C444.7,1341.7 447.4,1346.7 451.3,1351.3C459.1,1360.6 471.8,1369 488.3,1377.1C521.4,1393.2 570,1407.6 625.5,1417.7C664.6,1424.8 692.6,1428.4 729.2,1428.3C717.3,1431.3 707,1434.2 698.2,1437.1C675.2,1444.6 662,1451.2 655.9,1460.1C653.6,1463.5 652.4,1467.4 652.7,1471.3C653.1,1475.2 654.9,1478.7 657.4,1481.7C662.5,1487.7 670.6,1492.4 681.3,1496.7C702.6,1505.3 734.3,1511.7 771.6,1514.8C846.2,1520.9 942.9,1513.5 1019.4,1478.7C1037.7,1470.4 1055.2,1460.3 1071.7,1448.7C1052.7,1454.8 1033.9,1461.4 1015.2,1468.5C970.1,1485.6 941.1,1499.6 925.2,1510.5C917.3,1515.9 912.2,1519.9 910.4,1526C909.5,1529 910.4,1533.2 912.8,1535.5C915.2,1537.8 918,1538.7 921.1,1539.3C930.9,1541.2 941.8,1537.4 959.4,1532.2C965.1,1530.5 971.5,1528.7 978.6,1526.7C964.1,1534.4 954,1541.4 947.5,1547.8C941.2,1554.1 937.7,1560.6 938.9,1567.3C940.2,1574 945.7,1578.3 952.4,1581.2C965.8,1586.9 986.6,1588.7 1010.9,1587.8C1025.8,1587.3 1042,1585.6 1058.2,1583C1057.3,1583.7 1056.5,1584.4 1055.7,1585.1C1049.2,1590.9 1045.2,1596.5 1044.4,1602.6C1043.6,1608.8 1046.9,1614.5 1051.6,1618.3C1056.3,1622.1 1062.4,1624.8 1069.6,1627C1086.1,1632.2 1108.6,1635 1129.9,1636.4C1087.2,1646.3 1057.9,1654.1 1040.7,1666.3C1033.3,1671.6 1028.3,1676.8 1025.8,1682.7C1023.3,1688.6 1023.9,1695.2 1027.1,1700.3C1033.6,1710.6 1047.9,1716.5 1067.2,1720.6C1095.2,1726.6 1134.7,1727.8 1178.7,1721.9C1165.2,1728 1153.9,1733.6 1144.7,1738.7C1126.2,1749.2 1115.3,1757.5 1113.2,1768.5C1112.1,1774 1114.3,1779.6 1118.1,1783.8C1121.9,1788 1127.4,1791.4 1134.3,1794.7C1148.2,1801.3 1168.4,1807.5 1194.3,1814.3C1237.9,1825.8 1279,1822.9 1317.9,1817.7C1317.2,1818.9 1316.6,1820.2 1316.5,1821.8C1316.3,1824.9 1318,1827.6 1319.8,1829.2C1321.6,1830.8 1323.6,1831.7 1325.8,1832.6C1330.3,1834.3 1336,1835.4 1342.7,1836.3C1352.2,1837.5 1363.6,1838.1 1375.1,1838.1C1363.4,1840.2 1351.7,1841.4 1340.9,1842.3C1327.4,1843.4 1315.3,1844.1 1305.8,1845.5C1301,1846.2 1296.9,1847.1 1293.3,1848.5C1289.7,1849.9 1286.3,1852.1 1284.7,1856C1283.1,1860 1283.1,1864.5 1284.5,1868.5C1286,1872.5 1288.6,1875.9 1292.1,1879.1C1299.1,1885.5 1309.4,1891 1322.6,1895.8C1344.5,1903.8 1374.1,1909.7 1408.3,1911.7C1408.2,1911.8 1408.2,1911.8 1408.1,1911.9C1405.9,1913.7 1404.2,1915.7 1403.2,1918.2C1402.2,1920.8 1402.5,1924 1403.7,1926.3C1406.2,1931 1410.5,1933 1415.6,1934.9C1420.7,1936.9 1426.9,1938.4 1433.9,1939.7C1452.1,1943.1 1475,1945 1493.1,1945.3C1488.8,1948.2 1485.5,1951.1 1483,1954C1480.3,1957.2 1478.5,1960.8 1478.7,1964.8C1478.9,1968.8 1481.4,1972.2 1484.4,1974.4C1490.4,1978.8 1498.9,1980.8 1510.1,1982.1C1521.3,1983.5 1535,1983.9 1550.3,1983.5C1589.6,1982.4 1627.5,1976.6 1662.6,1968.3C1698.2,1959.9 1727.2,1950.7 1752.6,1940.5C1791.6,1924.9 1809.4,1907.4 1809.4,1907.4C1809.4,1907.4 1790.2,1923 1751,1936.3C1725.1,1945 1696.5,1952.5 1660.7,1959.6C1625.8,1966.6 1588.6,1971.4 1550,1972.5C1535,1972.9 1521.8,1972.5 1511.4,1971.2C1501,1969.9 1493.5,1967.5 1490.9,1965.5C1489.6,1964.5 1489.7,1964.3 1489.7,1964.2C1489.7,1964.1 1489.8,1963.1 1491.4,1961.1C1494.7,1957.2 1503.4,1951.1 1518.2,1944L1548.8,1929.3L1515.1,1933.5C1502.7,1935 1462.2,1933.8 1435.9,1928.8C1429.3,1927.6 1423.6,1926.1 1419.5,1924.5C1415.4,1922.9 1413.3,1920.9 1413.4,1921C1413.4,1921.1 1413.5,1921.9 1413.5,1921.9C1413.5,1922 1413.8,1921.3 1415,1920.2C1417.4,1918.2 1423,1915.2 1431.9,1911.9L1460.5,1901.5L1430,1901.2C1387.8,1900.8 1350.9,1894.2 1326.2,1885.2C1313.8,1880.7 1304.6,1875.5 1299.4,1870.8C1296.8,1868.4 1295.3,1866.2 1294.7,1864.5C1294.1,1862.8 1294.1,1861.6 1294.7,1860C1294.7,1860.1 1295.1,1859.4 1297.2,1858.5C1299.4,1857.6 1302.8,1856.8 1307.2,1856.2C1315.9,1854.9 1328,1854.2 1341.6,1853C1368.9,1850.7 1402.6,1846.6 1430.4,1830.8L1490.9,1796.4L1425.7,1820.9C1418.5,1823.6 1403.9,1825.7 1388.4,1826.5C1372.9,1827.3 1356.2,1826.8 1343.9,1825.2C1337.7,1824.4 1332.6,1823.3 1329.5,1822.1C1328,1821.5 1327,1820.9 1326.8,1820.8C1326.6,1820.6 1327.4,1821.5 1327.3,1822.6C1327.2,1823.7 1326.8,1823.7 1327.5,1823.1C1328.2,1822.5 1329.8,1821.4 1332.2,1820.3C1337,1818 1345,1815.1 1356.7,1812L1446.2,1788L1354.5,1801.2C1304.1,1808.4 1252.4,1818.1 1197,1803.5C1171.3,1796.7 1151.5,1790.6 1139,1784.6C1132.8,1781.6 1128.4,1778.6 1126.1,1776.2C1123.8,1773.8 1123.5,1772.4 1123.9,1770.5C1124.6,1766.7 1132.3,1758.2 1150,1748.2C1167.7,1738.2 1194.5,1726.3 1231.2,1711.7L1306.6,1681.7L1227.8,1701.2C1165.1,1716.7 1105.5,1717.4 1069.4,1709.7C1051.3,1705.8 1039.6,1699.3 1036.3,1694.3C1034.7,1691.8 1034.5,1690 1035.8,1687C1037.1,1684 1040.6,1679.8 1047,1675.2C1065,1662.4 1108.1,1652.7 1173.9,1637.5C1196.2,1632.4 1218.4,1627.2 1240.7,1622C1218.2,1625 1195.4,1626.5 1172.7,1626.5C1145.5,1626.5 1098.5,1624.3 1072.7,1616.2C1066.2,1614.2 1061.2,1611.7 1058.3,1609.4C1055.4,1607.1 1054.9,1605.7 1055.1,1603.7C1055.3,1601.7 1057.3,1597.9 1062.7,1593.1C1068.2,1588.3 1076.9,1582.5 1089.4,1576L1131,1554.3L1085.5,1565.8C1060.7,1572.1 1033.7,1575.7 1010.2,1576.6C986.7,1577.4 966.5,1575.2 956.5,1570.9C951.5,1568.7 949.8,1566.6 949.5,1565.1C949.2,1563.7 950,1560.5 955,1555.5C965.1,1545.5 990.4,1530.8 1035.4,1513C1053.5,1505.9 1071.8,1499.4 1090.3,1493.6C1070.9,1495.8 1051.5,1498.8 1032.3,1502.5C998.1,1509.1 973.5,1516.3 955.9,1521.4C938.3,1526.5 927.5,1529.1 922.8,1528.2C920.8,1527.8 920,1527.2 920.2,1527.4C920.4,1527.6 920.7,1529.1 920.7,1529C920.8,1528.7 924,1524.3 931.1,1519.4C945.4,1509.6 974.1,1495.5 1018.8,1478.6L1014.6,1468.4C940.8,1502 845.4,1509.5 772.3,1503.5C735.8,1500.5 704.7,1494 685.2,1486.2C675.4,1482.3 668.7,1477.9 665.7,1474.3C664.2,1472.5 663.7,1471.1 663.6,1470C663.5,1468.9 663.7,1467.8 664.9,1466.1C667.7,1462.1 679.4,1454.6 701.5,1447.3C723.7,1440.1 756.1,1432.3 800.8,1424.5L916.2,1404.2L799.4,1413.6C719.7,1420 687.5,1417.5 627.4,1406.6C572.7,1396.7 524.6,1382.4 493.1,1367C477.3,1359.3 465.8,1351.2 459.7,1344C456.7,1340.4 455.1,1337.1 454.6,1334.3C454.1,1331.5 454.5,1329 456.3,1326C456.8,1325.2 459.4,1323.1 464.6,1321.4C469.8,1319.7 477.1,1318.4 486.1,1317.3C504,1315.2 528.5,1314.5 556.6,1314.1C612.8,1313.4 683.9,1314.4 749.2,1309.6C781.6,1307.2 813.8,1303.4 845.8,1298C813.6,1300.4 781.4,1300.6 749.2,1298.6C676.8,1294 604.5,1278.2 526.6,1257.2C461.5,1239.6 397,1211.7 347,1175.5C321.8,1157.3 278.5,1125 263.7,1104.6C260,1099.5 258.4,1095.2 258.4,1093.4C258.4,1092.5 258.5,1092.2 259,1091.7C259.5,1091.2 260.5,1090.4 262.6,1089.7C271.1,1087 294.7,1087.9 335.9,1097.6C379.6,1107.8 441,1119.3 518.7,1121.4C557.5,1122.5 596.3,1121.1 634.9,1117.2C596.4,1118 557.8,1115.7 519.6,1110.4C374.3,1090.1 265.2,1030 173.6,910.1C144.9,872.6 129.8,845.4 125.9,828.2C123.9,819.6 124.7,813.9 126.9,810.1C129.1,806.3 133.1,803.6 140.1,801.9C139.5,802 143,802.2 147.9,804.5C152.8,806.7 159.5,810.3 167.5,814.9C183.6,824.1 205.5,837.4 232.4,852.2C286.2,881.8 360.4,917.4 450.4,939.3L590.1,973.3L453.4,928.7C367.5,900.7 284.3,848.7 215.7,791.8C164.8,749.5 123,704.5 93.5,664.6C64,624.7 47.1,589.5 45.2,569.5C44.8,565.4 45.3,562.7 45.8,561.5C46.3,560.3 46.4,560.3 47.6,560C49.9,559.4 57.4,561 67.3,565.9C87.1,575.8 117.1,597.1 152.9,622.5C224.4,673.2 319.4,740.5 410.1,768.4C422.9,772.3 435.8,775.6 448.9,778.1C437.4,771.6 425.9,765 414.5,758.4C293.4,687.5 130.8,580.5 69.3,430.8C59.6,407.3 52.2,384.5 48.2,365.6C44.2,346.7 44.2,331.5 47.4,324.5C49,321 50.7,319.5 53.6,318.9C56.6,318.2 61.5,318.7 68.3,321.7C82.1,327.6 103,343.1 131.3,370.9C206.5,444.9 325.5,538.5 407,587.4C519.3,655 640,750.2 807.5,799.8C833.6,807.5 860.1,813.9 886.8,819C861.1,810.6 836,800.7 811.4,789.5C589.7,688.1 422.4,475.7 327.2,235.2C308.7,188.3 297,154.1 291.1,130.7C288.1,119 286.6,110 286.3,103.7C286,97.4 287.3,94.1 287.7,93.5C287.9,93.2 287.8,93.3 288.2,93.2C288.6,93.1 289.6,93.2 291.2,93.7C294.3,94.7 299.2,97.6 304.9,102.2C316.4,111.4 331.7,127 349.1,146.7C418.8,225.6 523.4,369.7 587.9,441.7C706.4,574.3 811.7,664 911.3,723.5C965.2,755.7 1015.5,780.5 1060.2,802.4C1120.9,832.2 1171.5,865.5 1207.5,902.5Z" style="fill:rgb(161,161,161);fill-rule:nonzero;stroke:rgb(161,161,161);stroke-width:30px;"/>
        <path id="path4814" d="M763.7,839.1C766.7,839.1 769.7,839.3 772.8,839.5C791.9,840.9 810.6,842.5 824.5,843.4C838.4,844.3 847.5,844.5 847.5,844.5C847.5,844.5 838.8,842 825.2,838.6C812,835.3 793,830.9 773.7,828.7C770.4,828.3 767,828.1 763.5,828.1C756.8,828.1 751.5,828.2 747.7,833C745.8,835.4 745.3,838.9 746.1,841.6C746.8,844.2 748.2,846.4 750.1,848.8C752.6,851.9 756.1,855.3 760.6,859.2C739.4,851.1 722.1,845.8 708.4,842.9C697.3,840.6 688.6,839.8 681.6,840.7C674.7,841.6 668.7,844.5 666.3,850.1C664,855.6 664.7,862 667.7,868.9C670.7,875.8 676,883.1 684.2,891.3C695.4,902.5 711.8,915.2 735.1,928.9C719.4,925.2 705,921.2 692.6,915.6C654.4,898.5 629.2,891.4 612.3,891.9C603.9,892.2 597,894.6 592.7,899.6C588.4,904.6 587.5,911.4 588.5,918.2C590.5,931.9 599.6,948.1 612.4,965.4C625.2,982.7 641.8,1001 659.4,1017.3C706.7,1061 764.4,1089.3 818.3,1109.7C780.6,1102 742.3,1093.1 697.6,1091.4C687.1,1091 678.6,1092 671.8,1094.3C665,1096.7 659.8,1100.7 656.9,1106.1C651.2,1116.9 655.5,1130.1 664.6,1143.4C682.7,1169.8 722.4,1199.7 771.5,1218.2C858.7,1250.9 913.7,1257.4 972.5,1258.7C943.6,1262.1 919.1,1263.7 899.1,1265C881.9,1266.2 868.1,1267.1 857.3,1269C846.6,1270.9 838.3,1273.5 833.7,1280.3C830.1,1285.6 829.4,1292.3 831.4,1298C833.5,1303.7 837.7,1308.7 843.4,1313.4C854.7,1322.8 872.2,1331.2 893.4,1338.1C928.6,1349.7 974.1,1357.1 1017.3,1355C1011.6,1358.9 1007,1362.6 1003.5,1366.4C996.2,1374.1 993.2,1382.7 996.1,1390.2C999,1397.7 1006.3,1402.3 1015.4,1405.6C1024.5,1408.9 1035.9,1411 1048.9,1411.9C1100.9,1415.5 1178.2,1401.2 1215.5,1359.2C1222.5,1351.3 1228.2,1342.3 1232.4,1332.6C1223.9,1338.5 1215.7,1344.7 1207.8,1351.3C1190.6,1365.7 1180.6,1376.8 1176,1386.3C1173.7,1391 1172.6,1395.6 1173.6,1399.9C1174.6,1404.2 1177.8,1407.7 1181.6,1409.6C1188.9,1413.1 1198.2,1412.7 1209.1,1410.5C1200.8,1416.8 1193.5,1422.8 1187.4,1428.4C1173.9,1440.7 1165.3,1450.7 1164.6,1461.4C1164.2,1466.8 1166.9,1472.2 1171.4,1475.5C1175.9,1478.8 1181.9,1480.6 1189.6,1481.8C1197.9,1483 1208.4,1483.3 1221.4,1482.8C1201.4,1491.8 1188.5,1500.1 1181,1508.3C1175.4,1514.5 1172.6,1521.5 1174.4,1528C1176.1,1534.5 1181.5,1539.1 1188.3,1542.5C1201.9,1549.4 1223,1552.8 1248.1,1553.5C1263,1553.9 1279.2,1553.3 1295.8,1551.5C1292,1553.8 1288.6,1556 1285.5,1558.2C1280.5,1561.7 1276.5,1565.1 1273.6,1568.5C1270.6,1571.8 1268.5,1575.1 1268.1,1579.3C1267.8,1583.5 1270.7,1587.8 1274.4,1589.7C1278.1,1591.6 1282.4,1592.2 1288,1592.3C1290,1592.3 1292.1,1592.3 1294.3,1592.2C1286.2,1596.4 1279.5,1600.5 1274.1,1604.3C1267.8,1608.8 1263.3,1613 1260.5,1617.7C1257.7,1622.4 1257.1,1628.4 1259.7,1633.1C1262.3,1637.8 1266.9,1641 1272.8,1643.7C1278.7,1646.4 1286.4,1648.8 1295.8,1650.9C1309.8,1654.1 1327.7,1656.7 1349.7,1659C1346.8,1660.4 1344.2,1661.8 1341.9,1663.2C1334.7,1667.7 1329.8,1672.8 1328.4,1679.1C1327,1685.3 1329.6,1691.5 1334,1696.3C1338.4,1701.1 1344.6,1705.3 1352.2,1709.2C1392.3,1730 1416.9,1739.1 1482.1,1738.8C1480.2,1739.7 1478.5,1740.6 1476.8,1741.5C1467.8,1746.4 1462,1751.7 1460.6,1758.6C1459.1,1765.5 1463.1,1771.9 1468.7,1776.4C1474.2,1781 1481.8,1784.8 1490.8,1788.3C1518.8,1799.3 1560.6,1807.1 1591.1,1810C1587.3,1812.2 1584,1814.4 1581.3,1816.7C1574.5,1822.3 1570.5,1828.8 1570.6,1835.6C1570.7,1842.4 1574.7,1848.3 1580.2,1853C1585.8,1857.7 1593.2,1861.6 1601.9,1864.9C1629.3,1875.4 1669.9,1880.9 1705.4,1877.1C1704.6,1878.2 1703.9,1879.3 1703.5,1880.6C1702.5,1883.3 1702.9,1886.8 1704.4,1889.1C1707.5,1893.9 1712.4,1895.1 1718.3,1896.3C1724.2,1897.5 1731.5,1898.1 1739.9,1898.2C1772.2,1898.7 1803.1,1893.3 1829.4,1886.8C1846,1882.7 1859,1878.4 1870.3,1873.3C1888,1865.5 1894.7,1856.8 1894.7,1856.8C1894.7,1856.8 1886.9,1864.2 1869.1,1870C1857.4,1873.8 1844.7,1876.7 1827.9,1879.5C1801.4,1884 1771.2,1887.6 1740.1,1887.1C1732.1,1887 1725.3,1886.4 1720.5,1885.4C1715.7,1884.4 1713.3,1882.5 1713.6,1883C1713.8,1883.2 1713.8,1884.4 1713.8,1884.3C1713.8,1884.3 1714.3,1883.3 1715.7,1882.1C1718.5,1879.6 1724.6,1875.8 1734.1,1871.4L1802.9,1839.7L1730.2,1861C1694,1871.6 1637.7,1866.7 1605.8,1854.4C1597.8,1851.3 1591.4,1847.8 1587.2,1844.3C1583.1,1840.8 1581.5,1837.8 1581.5,1835.3C1581.5,1832.8 1582.9,1829.4 1588.2,1825C1593.5,1820.6 1602.5,1815.7 1615.6,1810.7L1643.9,1800L1613.6,1800C1587.7,1800 1528.2,1791 1494.7,1777.8C1486.3,1774.5 1479.6,1770.9 1475.6,1767.6C1471.6,1764.3 1470.9,1762.3 1471.3,1760.6C1471.7,1758.9 1474.3,1755.1 1482,1750.9C1489.7,1746.7 1501.9,1742.1 1519.2,1737.4L1567.7,1724.4L1517.5,1726.6C1424.7,1730.6 1403.3,1723.2 1357.1,1699.2C1350.2,1695.6 1345,1691.9 1342,1688.7C1339.1,1685.5 1338.5,1683.4 1339,1681.4C1339.5,1679.4 1341.7,1676.1 1347.6,1672.4C1353.5,1668.7 1362.8,1664.7 1375.7,1660.8C1388.1,1657.1 1400.7,1654.4 1413.5,1652.7C1400.5,1652 1387.5,1651.1 1374.6,1650C1341.6,1647.2 1315.9,1643.9 1298.1,1639.9C1289.2,1637.9 1282.2,1635.7 1277.3,1633.4C1272.4,1631.2 1270,1628.8 1269.2,1627.5C1268.5,1626.2 1268.4,1625.6 1269.8,1623.1C1271.2,1620.6 1274.8,1617.1 1280.4,1613.1C1291.6,1605.1 1310.9,1595.4 1337.9,1584L1406.7,1555.1L1334.4,1573.5C1312.8,1579 1297.3,1581.2 1288.1,1581C1283.5,1580.9 1280.5,1580.1 1279.4,1579.6C1278.3,1579 1279.1,1579.9 1279.1,1579.8C1279.1,1579.7 1279.7,1577.9 1281.8,1575.5C1283.9,1573.1 1287.3,1570.1 1291.8,1566.9C1300.9,1560.5 1314.4,1553 1331.6,1545.6L1379.6,1524.8L1328.3,1535.1C1300.8,1540.6 1272.5,1542.8 1248.3,1542.2C1224.1,1541.6 1203.8,1537.8 1193.2,1532.4C1187.9,1529.7 1185.5,1526.9 1185,1524.9C1184.5,1522.9 1184.9,1520.2 1189.1,1515.5C1197.5,1506.3 1220.2,1493.2 1261,1478.7L1308.9,1461.7L1258.4,1468C1226.8,1471.9 1204.5,1472.6 1191.1,1470.6C1184.4,1469.6 1179.9,1467.9 1177.8,1466.3C1175.6,1464.7 1175.4,1463.9 1175.5,1461.9C1175.8,1457.8 1182,1447.9 1194.8,1436.3C1207.6,1424.7 1226.2,1410.7 1249.5,1395.1L1335.2,1337.4L1243.9,1385.6C1231.3,1392.3 1218.7,1396.9 1208.3,1399.1C1197.9,1401.4 1189.5,1400.9 1186.4,1399.4C1184.8,1398.6 1184.6,1398.2 1184.4,1397.3C1184.2,1396.4 1184.3,1394.3 1185.9,1390.9C1189.2,1384.2 1198.2,1373.4 1214.9,1359.6L1207.2,1351.7C1174.3,1388.7 1098.7,1404.1 1049.7,1400.7C1037.4,1399.9 1026.8,1397.9 1019.2,1395.1C1011.6,1392.3 1007.5,1388.7 1006.4,1386C1005.4,1383.3 1005.8,1379.9 1011.5,1373.8C1017.2,1367.7 1028,1360.2 1044.7,1351.9L1075.8,1336.4L1041.4,1341.4C993.4,1348.5 937.4,1340.8 896.7,1327.4C876.4,1320.7 859.8,1312.5 850.3,1304.7C845.6,1300.8 842.7,1297 841.6,1294C840.5,1291.1 840.7,1289.1 842.6,1286.3C844.1,1284.1 849.3,1281.4 859,1279.7C868.7,1278 882.4,1277 899.6,1275.8C933.9,1273.5 982.2,1270.5 1043.1,1258.6C1058.8,1255.6 1074.4,1252.1 1089.9,1248.3C1074,1247.9 1058,1247.7 1042.1,1247.7C949.9,1247.3 893.9,1252.1 775.3,1207.6C728,1189.9 689.6,1160.3 673.6,1137C665.6,1125.3 664,1116.2 666.6,1111.1C667.9,1108.6 670.4,1106.3 675.3,1104.6C680.2,1102.9 687.4,1101.9 697,1102.3C765.1,1104.9 818.8,1125.1 881.9,1131C896.5,1132.4 911.2,1132.9 925.9,1132.7C911.9,1128.7 898,1124.5 884.1,1120.2C816.3,1099.1 730.9,1068.5 666.7,1009.1C649.6,993.3 633.4,975.4 621.1,958.8C608.8,942.2 600.7,926.5 599.2,916.5C598.5,911.5 599.2,908.6 600.9,906.7C602.5,904.8 605.8,903.1 612.4,902.9C625.6,902.5 650.3,908.8 687.8,925.6C712.3,936.6 742,941.4 772.5,948.9L821.5,960.9L776.3,938.6C733.5,917.5 706.7,898.4 691.8,883.4C684.3,875.9 679.8,869.4 677.6,864.3C675.4,859.3 675.5,856 676.3,854.2C676.7,853.4 677.8,852.1 682.7,851.5C687.6,850.9 695.4,851.4 705.9,853.6C726.7,858 758,868.7 800.3,887.9L861.7,915.6L805.6,878.2C779.6,860.9 763.7,848.3 758.5,841.8C757.2,840.2 756.6,838.9 756.6,838.7C756.5,838.4 756.5,839.6 756.1,840.1C755.6,840.8 758,839.1 763.7,839.1Z" style="fill:rgb(161,161,161);fill-rule:nonzero;stroke:rgb(161,161,161);stroke-width:30px;"/>
    </g>
</svg>
